{"glyphs":{"0":{"ha":656,"x_min":0,"x_max":0,"o":"m 338 -133 b 582 46 446 -133 528 -62 b 663 435 636 154 663 294 b 585 806 663 570 637 704 b 351 972 533 907 455 972 b 98 795 239 972 155 903 b 13 407 41 687 13 549 b 94 35 13 261 40 138 b 338 -133 153 -77 235 -133 z m 361 -68 b 199 76 292 -68 238 -20 b 145 398 163 164 145 271 b 203 747 145 533 164 650 b 375 908 245 854 302 908 b 538 764 444 908 498 860 b 592 444 574 676 592 569 b 534 94 592 308 573 191 b 361 -68 492 -14 435 -68 z "},"1":{"ha":656,"x_min":0,"x_max":0,"o":"m 500 -133 b 522 -100 514 -133 522 -117 b 500 -66 522 -83 514 -66 l 384 -66 b 381 64 382 -28 381 16 b 414 763 381 252 392 486 b 429 935 417 812 422 870 b 405 962 429 947 421 956 b 353 972 389 969 372 972 b 301 952 328 972 311 966 l 164 745 b 161 736 162 743 161 740 b 204 701 163 718 188 701 b 220 709 210 701 216 704 l 289 814 b 278 505 285 730 281 627 b 273 147 275 383 273 264 b 278 -66 273 65 275 -6 l 149 -66 b 127 -99 135 -66 127 -83 b 149 -133 127 -115 135 -133 z "},"2":{"ha":656,"x_min":0,"x_max":0,"o":"m 587 -133 b 609 -100 601 -133 609 -117 b 587 -66 609 -83 601 -66 l 163 -66 b 364 161 230 0 297 76 b 534 429 431 246 488 336 b 606 701 579 522 604 612 b 566 849 605 759 592 808 b 328 972 513 930 421 972 b 26 739 210 972 85 898 l 25 733 b 75 701 26 715 54 701 b 94 711 84 701 91 705 b 195 855 119 775 153 823 b 323 902 238 886 280 902 b 484 724 409 902 484 841 b 332 293 484 597 433 454 b 41 -68 248 160 151 39 b 26 -99 31 -73 26 -83 b 48 -133 26 -115 34 -133 z "},"3":{"ha":656,"x_min":0,"x_max":0,"o":"m 284 -133 b 482 -81 362 -132 429 -115 b 604 45 536 -48 576 -6 b 644 203 631 96 644 149 b 429 463 644 321 574 431 b 593 734 540 531 593 634 b 329 972 592 861 504 972 b 18 739 205 972 79 899 l 18 733 b 68 701 20 715 47 701 b 87 711 77 701 83 705 b 191 854 112 774 146 823 b 322 902 235 886 278 902 b 475 762 424 902 475 840 b 444 642 475 724 465 684 b 195 450 401 557 319 484 b 184 426 187 447 184 437 b 206 385 184 406 193 385 l 209 385 b 304 397 244 393 276 397 b 462 331 374 395 427 373 b 513 182 496 289 513 239 b 273 -67 513 61 432 -67 b 142 -31 227 -67 184 -55 b 45 81 101 -7 69 31 b 26 92 41 88 35 92 b -16 62 7 92 -16 79 b -15 54 -16 60 -16 57 b 111 -87 15 -10 57 -57 b 284 -133 164 -118 222 -133 z "},"4":{"ha":656,"x_min":0,"x_max":0,"o":"m 506 -133 b 549 -122 520 -133 534 -130 b 569 -91 562 -115 569 -104 b 564 71 566 -44 564 9 b 568 240 564 122 566 178 l 660 240 b 676 272 671 240 676 251 b 658 306 676 294 670 306 l 570 306 b 594 718 576 456 585 593 b 613 935 603 841 610 913 b 588 962 612 947 604 956 b 536 972 572 969 555 972 b 481 944 505 972 486 963 b 469 724 478 923 473 850 b 457 306 463 599 459 459 l 117 306 b 396 916 303 709 396 912 b 372 955 396 930 388 943 b 322 972 355 966 338 972 b 293 958 311 972 300 968 b 186 736 281 939 245 865 b -5 310 125 608 62 465 b -9 294 -7 305 -9 300 b 31 240 -9 267 7 240 l 456 240 l 456 172 b 465 -104 456 62 459 -30 b 506 -133 467 -123 480 -133 z "},"5":{"ha":656,"x_min":0,"x_max":0,"o":"m 296 -133 b 659 287 528 -133 659 84 b 625 456 659 347 648 403 b 522 585 603 509 568 552 b 338 637 473 620 412 637 b 106 549 256 637 179 608 l 106 867 l 566 867 b 595 921 586 867 595 893 b 568 972 594 948 585 972 l 84 972 b 40 922 56 972 42 956 l 40 490 b 93 448 40 465 66 448 b 117 458 103 448 111 452 b 304 561 172 527 235 561 b 477 471 377 561 435 531 b 534 265 515 414 534 346 b 506 107 534 211 525 158 b 422 -18 487 56 459 14 b 281 -67 385 -50 338 -66 b 74 82 197 -67 119 -18 b 54 92 69 89 62 92 b 12 63 35 92 12 80 b 14 55 12 60 12 58 b 134 -87 43 -8 83 -56 b 296 -133 184 -117 238 -133 z "},"6":{"ha":656,"x_min":0,"x_max":0,"o":"m 376 -68 b 210 27 307 -68 252 -36 b 151 235 171 86 151 155 b 205 440 151 317 169 385 b 374 534 244 503 300 534 b 545 441 447 534 504 503 b 602 237 583 385 602 317 b 544 28 602 156 583 86 b 376 -68 503 -36 446 -68 z m 353 -133 b 670 249 563 -133 670 61 b 637 418 670 308 659 365 b 368 600 593 526 503 597 b 264 578 332 599 297 592 b 429 897 349 751 404 857 b 433 909 431 901 433 905 b 401 951 433 922 422 937 b 341 972 380 965 359 972 b 314 960 330 972 321 968 b 238 819 305 947 280 901 b 94 523 195 737 148 639 b 39 376 69 469 51 420 b 21 237 27 332 21 286 b 353 -133 21 41 139 -133 z "},"7":{"ha":656,"x_min":0,"x_max":0,"o":"m 129 -133 b 170 -111 150 -133 163 -125 b 326 256 203 -19 254 104 b 528 678 397 409 464 550 b 641 897 592 806 629 879 b 644 909 643 901 644 905 b 627 951 644 922 639 937 b 583 972 616 965 601 972 l 37 972 b 15 940 22 972 15 957 b 37 907 15 923 22 907 l 497 907 b 278 430 445 800 372 642 b 69 -82 184 218 115 47 b 67 -92 68 -85 67 -89 b 129 -133 69 -117 98 -132 z "},"8":{"ha":656,"x_min":0,"x_max":0,"o":"m 365 505 b 241 553 317 505 275 522 b 186 697 206 585 188 633 b 234 841 186 751 202 799 b 376 908 266 883 313 905 b 554 717 495 907 554 815 b 365 505 554 576 456 505 z m 340 -133 b 530 -85 416 -132 479 -115 b 646 36 581 -54 620 -14 b 684 192 671 85 684 137 b 637 363 684 254 669 311 b 496 480 606 415 559 454 b 593 583 539 507 571 541 b 625 713 614 625 625 668 b 595 838 625 757 614 798 b 353 972 554 918 474 972 b 121 889 254 972 177 945 b 44 706 70 839 44 778 b 81 574 44 660 56 616 b 187 473 104 532 140 498 b 43 349 123 444 75 403 b -5 178 11 294 -5 237 b 33 28 -5 126 7 76 b 340 -133 84 -66 186 -130 z m 363 -68 b 232 -33 311 -68 267 -56 b 127 176 161 14 127 94 b 164 323 127 235 139 283 b 378 441 213 401 295 441 b 492 414 418 441 456 432 b 614 195 563 378 614 305 b 551 15 614 125 593 65 b 363 -68 505 -40 442 -68 z "},"9":{"ha":656,"x_min":0,"x_max":0,"o":"m 297 307 b 125 399 224 307 167 337 b 69 603 88 455 69 523 b 127 812 69 684 88 753 b 295 908 168 876 224 908 b 460 813 363 908 418 876 b 519 605 500 754 519 685 b 466 399 519 524 502 455 b 297 307 427 338 370 307 z m 330 -133 b 357 -120 341 -133 350 -129 b 433 21 366 -108 391 -61 b 576 317 475 103 523 201 b 650 603 626 423 650 506 b 317 972 650 800 532 972 b 1 591 108 972 1 779 b 34 422 1 532 12 475 b 302 241 78 315 168 243 b 407 261 338 241 374 248 b 241 -58 322 88 267 -18 b 238 -68 239 -61 238 -64 b 270 -111 238 -83 249 -97 b 330 -133 291 -125 311 -133 z "},"\u0000":{"ha":0,"x_min":0,"x_max":0,"o":""},"\r":{"ha":347,"x_min":0,"x_max":0,"o":""}," ":{"ha":332,"x_min":0,"x_max":0,"o":""}," ":{"ha":332,"x_min":0,"x_max":0,"o":""},"!":{"ha":224,"x_min":0,"x_max":0,"o":"m 87 234 b 129 245 101 234 115 238 b 149 277 142 253 149 264 b 144 398 146 316 144 357 b 166 743 146 524 153 640 b 193 935 175 814 184 879 b 117 972 191 958 155 972 b 62 944 85 972 66 963 b 45 771 57 923 52 865 b 37 475 39 684 37 585 b 45 264 37 401 39 330 b 87 234 47 244 60 234 z m 102 0 b 166 28 127 0 149 9 b 193 96 184 47 193 70 b 166 165 193 123 184 146 b 102 193 149 184 127 193 b 37 165 77 193 55 184 b 10 96 19 146 10 123 b 37 28 10 70 19 47 b 102 0 55 9 77 0 z "},"\"":{"ha":376,"x_min":0,"x_max":0,"o":"m 106 743 b 153 794 120 743 136 760 b 177 894 169 827 177 861 b 106 972 177 937 158 972 b 34 894 58 972 34 946 b 59 793 34 861 42 827 b 106 743 76 760 92 743 z m 271 743 b 317 794 285 743 300 760 b 342 894 334 827 342 861 b 271 972 342 937 323 972 b 199 894 222 972 199 946 b 224 793 199 861 207 827 b 271 743 241 760 256 743 z "},"#":{"ha":844,"x_min":0,"x_max":0,"o":"m 425 -133 b 473 -106 448 -133 469 -124 b 547 160 488 -37 513 52 l 758 160 b 780 193 772 160 780 176 b 758 226 780 210 772 226 l 568 226 b 700 614 611 361 655 490 l 864 614 b 886 647 878 614 886 630 b 864 680 886 664 878 680 l 723 680 b 809 908 771 812 800 888 b 812 917 811 911 812 913 b 781 955 812 930 802 943 b 721 972 760 966 740 972 b 687 957 704 972 693 967 b 591 680 677 937 645 844 l 431 680 b 517 908 479 812 508 888 b 519 917 519 911 519 913 b 488 955 519 930 509 943 b 429 972 467 966 448 972 b 395 957 412 972 401 967 b 299 680 385 937 353 844 l 130 680 b 108 648 115 680 108 664 b 130 614 108 631 115 614 l 278 614 b 159 226 237 487 197 358 l 23 226 b 2 193 9 226 2 211 b 23 160 2 176 9 160 l 140 160 b 77 -90 112 60 91 -24 l 76 -96 b 133 -133 76 -121 105 -133 b 181 -106 155 -133 176 -124 b 254 160 196 -37 220 52 l 433 160 b 369 -90 404 60 383 -24 l 368 -96 b 425 -133 368 -121 397 -133 z m 275 226 b 408 614 319 361 363 490 l 570 614 b 451 226 530 487 490 358 z "},"$":{"ha":590,"x_min":0,"x_max":0,"o":"m 297 363 b 404 269 340 333 375 302 b 448 158 431 235 446 198 b 404 14 446 98 431 50 b 297 -57 375 -22 340 -45 z m 264 -239 b 297 -217 280 -239 297 -231 l 297 -130 b 431 -85 345 -125 390 -110 b 571 168 513 -37 568 48 b 441 408 570 271 516 346 b 297 512 411 431 363 467 l 297 907 b 314 907 302 907 308 907 b 460 863 370 907 418 892 b 471 859 463 861 467 859 b 507 899 489 860 507 882 b 500 914 507 905 505 910 b 311 972 447 953 384 972 l 297 972 l 297 1057 b 264 1078 297 1072 281 1078 b 231 1057 248 1078 231 1071 l 231 964 b -2 711 105 937 -2 848 b 71 541 -2 650 22 594 b 231 410 106 504 159 460 l 231 -65 b 19 82 145 -63 64 -14 b -1 92 15 89 8 92 b -43 63 -19 92 -43 80 b -41 55 -43 61 -42 58 b 73 -80 -14 -4 24 -49 b 231 -132 121 -111 174 -128 l 231 -217 b 264 -239 231 -231 248 -239 z m 231 561 b 123 728 160 616 124 671 b 231 892 123 809 166 865 z "},"%":{"ha":752,"x_min":0,"x_max":0,"o":"m 104 -133 b 146 -111 125 -133 139 -125 b 301 256 178 -19 230 104 b 504 678 372 409 439 550 b 616 897 568 806 605 879 b 620 909 618 901 620 905 b 588 951 620 922 609 937 b 528 972 567 965 547 972 b 501 960 517 972 508 968 b 391 732 489 941 452 865 b 196 298 329 600 264 455 b 45 -82 127 140 77 14 b 43 -92 43 -85 43 -89 b 104 -133 45 -117 75 -132 z m 104 490 b 217 526 149 490 186 503 b 307 734 277 574 307 652 b 284 848 307 774 299 812 b 105 972 254 922 195 972 b -9 937 60 972 22 961 b -99 729 -68 890 -99 810 b -77 614 -99 689 -92 650 b 104 490 -47 541 14 490 z m 533 -133 b 646 -98 578 -133 615 -121 b 736 111 705 -50 736 30 b 713 226 736 151 728 189 b 534 350 684 299 623 349 b 420 313 488 349 451 337 b 330 106 360 267 330 187 b 353 -9 330 66 337 28 b 533 -133 382 -81 443 -133 z m 530 -61 b 466 -13 501 -60 480 -43 b 444 96 452 18 444 54 b 469 225 444 144 452 187 b 541 286 486 263 509 283 b 605 233 569 283 591 266 b 626 119 619 199 626 161 b 602 -3 626 75 618 35 b 530 -61 587 -40 562 -59 z m 101 562 b 37 610 72 564 51 580 b 16 724 22 641 16 679 b 59 889 16 793 30 848 b 113 921 73 910 92 920 b 176 862 140 919 162 899 b 197 742 191 824 197 784 b 174 621 197 698 189 657 b 101 562 157 583 133 564 z "},"&":{"ha":786,"x_min":0,"x_max":0,"o":"m 339 518 b 277 733 298 603 277 674 b 342 880 277 805 299 854 b 406 897 363 891 384 897 b 533 772 470 897 533 850 b 503 667 533 732 523 697 b 339 518 463 605 401 557 z m 684 -171 b 737 -146 701 -170 719 -161 b 766 -98 755 -132 765 -115 b 759 -79 766 -91 764 -85 b 664 37 727 -41 696 -2 b 779 240 711 91 749 159 b 780 246 779 242 780 244 b 739 274 780 262 759 273 b 716 260 728 274 720 269 b 622 90 692 193 661 136 b 370 459 521 217 437 340 b 480 541 408 484 445 511 b 600 774 551 600 600 675 b 397 972 595 907 500 972 b 151 711 280 972 151 884 b 231 448 151 642 178 554 b 77 317 172 411 120 367 b 9 134 34 268 12 206 b 90 -52 10 61 37 -1 b 315 -133 142 -103 217 -130 b 569 -49 401 -133 486 -105 b 665 -164 604 -92 636 -130 b 684 -171 670 -169 676 -171 z m 313 -67 b 76 132 161 -67 77 25 b 133 279 78 188 97 237 b 262 390 169 320 212 357 b 527 3 329 269 418 140 b 313 -67 458 -44 387 -67 z "},"'":{"ha":211,"x_min":0,"x_max":0,"o":"m 106 743 b 153 794 120 743 136 760 b 177 894 169 827 177 861 b 106 972 177 937 158 972 b 34 894 58 972 34 946 b 59 793 34 861 42 827 b 106 743 76 760 92 743 z "},"(":{"ha":391,"x_min":0,"x_max":0,"o":"m 494 -381 b 518 -343 503 -381 517 -362 b 507 -317 518 -328 515 -319 b 318 -166 432 -290 369 -240 b 204 98 267 -92 229 -4 b 165 418 178 201 165 307 b 203 741 165 530 178 638 b 316 1005 228 843 265 931 b 507 1156 367 1079 431 1130 b 518 1183 515 1159 518 1168 b 494 1221 518 1202 510 1221 l 490 1221 b 237 1070 389 1199 304 1149 b 85 781 170 991 119 895 b 34 420 51 667 34 547 b 84 63 34 296 51 176 b 236 -228 117 -51 168 -148 b 490 -381 303 -308 388 -359 z "},")":{"ha":391,"x_min":0,"x_max":0,"o":"m -99 -381 b 155 -228 3 -359 87 -308 b 307 63 222 -148 273 -51 b 357 420 340 176 357 296 b 306 781 357 547 340 667 b 154 1070 272 895 221 991 b -99 1221 87 1149 2 1199 l -103 1221 b -127 1183 -119 1221 -127 1202 b -117 1156 -127 1168 -124 1159 b 75 1005 -40 1130 24 1079 b 189 741 125 931 163 843 b 226 418 214 638 226 530 b 187 98 225 307 212 201 b 73 -166 161 -4 123 -92 b -117 -317 22 -240 -41 -290 b -127 -343 -124 -319 -127 -328 b -103 -381 -127 -362 -112 -381 z "},"*":{"ha":294,"x_min":0,"x_max":0,"o":"m 194 751 b 222 765 202 751 212 756 b 237 791 232 774 237 782 b 197 842 237 795 224 812 b 251 858 227 851 244 857 b 260 875 257 861 260 866 b 251 905 260 884 257 894 b 231 920 245 915 238 920 b 180 903 227 920 210 914 l 189 954 b 151 972 189 965 169 972 b 122 958 134 972 125 968 b 117 905 121 951 119 933 b 66 935 85 925 68 935 b 45 920 59 935 52 930 b 34 889 37 909 34 899 b 40 876 34 883 36 879 b 92 847 46 871 64 861 b 47 808 68 826 54 813 b 43 800 45 806 43 803 b 58 772 44 791 50 782 b 85 758 67 763 76 758 b 94 761 88 758 92 759 b 142 808 101 767 117 783 b 184 755 165 780 179 762 b 194 751 186 753 190 751 z "},"+":{"ha":648,"x_min":0,"x_max":0,"o":"m 323 151 b 357 172 340 151 357 157 l 357 387 l 572 387 b 594 420 587 387 594 403 b 572 453 594 437 587 453 l 357 453 l 357 669 b 324 690 357 682 341 690 b 291 669 307 690 291 682 l 291 453 l 76 453 b 54 420 62 453 54 437 b 76 387 54 404 62 387 l 291 387 l 291 172 b 323 151 291 158 307 151 z "},",":{"ha":254,"x_min":0,"x_max":0,"o":"m 100 -137 b 112 -133 104 -137 108 -136 b 189 -42 142 -110 168 -79 b 220 75 208 -5 219 35 b 125 193 220 132 193 193 b 61 165 100 193 79 184 b 34 96 43 146 34 123 b 61 28 34 70 43 47 b 125 0 79 9 100 0 b 137 1 130 0 134 0 b 73 -79 119 -35 98 -61 b 64 -97 67 -84 64 -90 b 100 -137 64 -115 83 -137 z "},"-":{"ha":555,"x_min":0,"x_max":0,"o":"m 479 166 b 501 199 494 166 501 182 b 479 233 501 216 494 233 l 76 233 b 54 200 62 233 54 216 b 76 166 54 183 62 166 z "},"­":{"ha":555,"x_min":0,"x_max":0,"o":"m 479 166 b 501 199 494 166 501 182 b 479 233 501 216 494 233 l 76 233 b 54 200 62 233 54 216 b 76 166 54 183 62 166 z "},".":{"ha":250,"x_min":0,"x_max":0,"o":"m 125 0 b 190 28 151 0 172 9 b 216 96 208 47 216 70 b 190 165 216 123 208 146 b 125 193 172 184 151 193 b 61 165 100 193 79 184 b 34 96 43 146 34 123 b 61 28 34 70 43 47 b 125 0 79 9 100 0 z "},"/":{"ha":645,"x_min":0,"x_max":0,"o":"m 96 -133 b 136 -111 116 -133 130 -125 b 292 256 169 -19 220 104 b 494 678 363 409 430 550 b 608 897 559 806 596 879 b 611 909 610 901 611 905 b 579 951 611 922 600 937 b 519 972 558 965 538 972 b 492 960 508 972 498 968 b 382 732 479 941 443 865 b 187 298 320 600 256 455 b 35 -82 119 140 68 14 b 34 -92 35 -85 34 -89 b 96 -133 35 -117 65 -132 z "},":":{"ha":250,"x_min":0,"x_max":0,"o":"m 125 459 b 190 488 151 459 172 469 b 216 555 208 506 216 529 b 190 625 216 583 208 606 b 125 652 172 643 151 652 b 61 625 100 652 79 643 b 34 555 43 606 34 583 b 61 488 34 529 43 506 b 125 459 79 469 100 459 z m 125 0 b 190 28 151 0 172 9 b 216 96 208 47 216 70 b 190 165 216 123 208 146 b 125 193 172 184 151 193 b 61 165 100 193 79 184 b 34 96 43 146 34 123 b 61 28 34 70 43 47 b 125 0 79 9 100 0 z "},";":{"ha":254,"x_min":0,"x_max":0,"o":"m 125 459 b 191 488 151 459 172 469 b 217 555 208 506 217 529 b 191 625 217 583 208 606 b 125 652 172 643 151 652 b 61 625 100 652 79 643 b 34 555 43 606 34 583 b 61 488 34 529 43 506 b 125 459 79 469 100 459 z m 100 -137 b 112 -133 104 -137 109 -136 b 189 -42 142 -110 168 -79 b 220 75 208 -5 219 35 b 125 193 220 132 193 193 b 61 165 100 193 79 184 b 34 96 43 146 34 123 b 61 28 34 70 43 47 b 125 0 79 9 100 0 l 138 1 b 73 -79 119 -35 98 -61 b 64 -97 67 -84 64 -90 b 100 -137 64 -115 83 -137 z "},"<":{"ha":608,"x_min":0,"x_max":0,"o":"m 543 177 b 574 220 561 177 574 203 b 564 239 574 229 570 235 l 144 432 l 564 625 b 574 644 570 629 574 635 b 543 687 574 661 561 687 b 45 459 541 687 374 611 b 34 433 37 456 34 447 b 45 405 34 418 37 409 b 543 177 374 253 541 177 z "},"=":{"ha":648,"x_min":0,"x_max":0,"o":"m 572 500 b 593 533 586 500 593 516 b 572 566 593 550 587 566 l 75 566 b 54 534 62 566 54 550 b 75 500 54 517 61 500 z m 572 274 b 593 307 586 274 593 290 b 572 340 593 323 587 340 l 75 340 b 54 308 62 340 54 324 b 75 274 54 291 61 274 z "},">":{"ha":608,"x_min":0,"x_max":0,"o":"m 65 177 b 563 405 67 177 233 253 b 574 433 570 409 574 418 b 563 459 574 447 570 456 b 65 687 233 611 67 687 b 34 644 47 687 34 661 b 44 625 34 635 37 629 l 463 432 l 44 239 b 34 220 37 235 34 229 b 65 177 34 203 47 177 z "},"?":{"ha":642,"x_min":0,"x_max":0,"o":"m 276 248 b 317 270 297 248 311 256 b 456 463 345 346 399 406 b 608 742 533 538 608 618 b 337 972 608 870 509 972 b 35 739 218 972 94 898 l 34 733 b 83 701 36 715 62 701 b 103 711 93 701 100 705 b 204 855 128 775 161 823 b 332 902 247 886 289 902 b 490 745 441 902 490 830 b 353 496 490 644 423 570 b 216 298 296 437 243 375 b 214 289 215 295 214 292 b 276 248 216 264 246 248 z m 267 0 b 331 28 292 0 313 9 b 357 96 349 47 357 70 b 331 165 357 123 349 146 b 267 193 313 184 292 193 b 202 165 241 193 220 184 b 175 96 184 146 175 123 b 202 28 175 70 184 47 b 267 0 220 9 241 0 z "},"@":{"ha":925,"x_min":0,"x_max":0,"o":"m 465 -256 b 684 -194 543 -256 615 -235 l 649 -138 b 465 -190 592 -172 531 -190 b 120 161 235 -190 120 -15 b 483 526 120 342 240 526 b 734 416 594 526 678 490 b 806 195 782 355 806 281 b 779 60 806 142 797 98 b 711 2 760 21 738 2 b 663 48 686 2 670 18 b 654 123 657 68 654 93 b 672 338 654 203 671 303 b 604 378 672 365 639 378 b 542 348 574 378 547 369 b 420 399 510 380 469 397 b 299 361 372 398 331 385 b 202 155 234 311 202 231 b 232 46 203 112 212 75 b 319 0 252 16 280 1 b 535 147 385 2 456 52 l 535 139 b 563 -5 535 81 545 33 b 679 -77 586 -53 625 -77 b 846 60 755 -77 814 -23 b 871 210 863 104 871 155 b 834 383 871 269 859 327 b 710 532 809 443 768 492 b 484 593 652 570 577 591 b 245 531 388 593 309 572 b 102 370 181 490 134 436 b 54 163 70 304 54 235 b 465 -256 54 -47 192 -256 z m 336 62 b 307 124 317 62 307 88 b 339 257 307 170 318 214 b 429 331 363 307 393 331 b 536 254 463 331 498 305 b 444 143 508 216 477 179 b 336 62 395 90 359 62 z "},"A":{"ha":798,"x_min":0,"x_max":0,"o":"m 146 -133 b 214 -100 180 -133 212 -121 l 214 -83 b 235 389 214 66 221 222 b 469 404 309 399 387 404 b 616 397 517 404 566 401 b 618 254 618 348 618 300 b 610 -21 618 164 616 73 l 608 -79 b 639 -100 609 -93 619 -100 b 674 -80 660 -100 672 -94 b 677 -2 675 -59 675 -33 b 686 279 683 98 686 192 b 684 389 686 315 685 351 b 778 369 708 385 739 378 b 802 412 791 369 802 393 b 790 434 802 424 798 431 b 681 456 755 444 718 451 b 417 972 660 800 572 972 b 106 436 257 972 153 793 b -22 410 40 424 -3 415 b -36 382 -31 408 -36 398 b -12 345 -36 363 -28 345 l -7 346 b 99 368 9 350 44 357 b 81 -39 87 241 81 105 l 81 -102 b 146 -133 82 -123 114 -133 z m 243 455 b 429 907 277 754 339 905 b 529 844 471 906 504 885 b 587 681 554 802 574 748 b 613 464 600 614 608 542 b 492 469 573 467 532 469 b 243 455 404 469 320 465 z "},"B":{"ha":792,"x_min":0,"x_max":0,"o":"m 320 -133 b 770 214 617 -133 770 50 b 739 334 770 256 760 296 b 488 468 698 408 615 459 b 649 745 595 547 649 652 b 353 972 649 868 554 972 b 190 939 297 972 242 962 b 9 684 85 895 12 809 b 78 485 11 601 43 540 b 138 332 108 438 133 390 l 138 263 b 146 48 138 188 141 116 b 189 18 149 28 162 18 b 251 59 219 19 249 35 b 250 61 251 60 251 60 b 246 191 248 102 246 145 b 279 661 246 336 257 492 b 294 769 286 720 292 756 b 271 800 294 783 286 793 b 219 810 255 807 237 810 b 163 782 186 810 168 801 b 142 501 156 747 149 654 l 137 511 b 75 680 104 559 75 610 b 113 800 75 726 87 766 b 332 906 161 868 245 906 b 534 735 475 906 534 827 b 471 566 534 678 513 622 b 299 451 428 509 371 471 b 283 422 288 448 283 438 b 305 385 283 404 292 385 b 421 401 351 396 389 401 b 637 208 567 400 637 312 b 601 81 637 165 625 123 b 493 -22 576 39 541 5 b 311 -66 442 -52 382 -66 b 69 3 214 -66 134 -43 b 59 7 66 5 62 7 b 34 -8 50 7 42 2 b 22 -37 26 -18 22 -27 b 27 -47 22 -41 24 -45 b 320 -133 102 -104 199 -133 z "},"C":{"ha":649,"x_min":0,"x_max":0,"o":"m 365 -133 b 625 161 498 -133 585 -35 l 625 165 b 589 191 625 181 606 191 b 561 171 573 191 564 184 b 528 65 554 136 543 101 b 379 -68 493 -21 444 -66 b 247 5 326 -67 282 -43 b 168 190 212 52 185 114 b 141 426 150 265 141 344 b 200 758 141 555 161 666 b 376 908 243 858 302 908 b 559 680 468 908 529 832 b 585 665 561 670 570 665 b 623 690 602 665 623 674 l 622 694 b 359 972 582 880 494 972 b 97 800 244 972 156 905 b 8 419 38 694 8 557 b 96 40 8 281 37 145 b 365 -133 155 -65 243 -133 z "},"D":{"ha":796,"x_min":0,"x_max":0,"o":"m 270 -133 b 764 461 595 -133 762 172 b 661 816 764 593 730 720 b 347 972 592 912 488 972 b 183 938 290 972 235 961 b 9 684 80 891 12 804 b 78 485 10 601 43 540 b 138 332 108 438 134 390 l 138 263 b 146 48 138 188 141 116 b 189 18 149 28 162 18 b 251 61 219 19 251 35 b 246 191 248 102 246 145 b 279 661 246 336 257 492 b 295 773 285 706 290 743 b 271 800 295 785 287 793 b 219 810 255 807 237 810 b 163 782 186 810 168 801 b 143 501 157 750 150 656 b 94 587 126 526 110 554 b 75 680 81 614 75 645 b 113 800 75 726 87 766 b 333 907 161 868 243 907 b 505 846 403 906 460 886 b 606 688 551 806 584 753 b 639 477 628 622 639 552 b 596 222 639 391 625 306 b 471 18 567 139 526 71 b 262 -66 413 -38 344 -66 b 69 3 196 -66 132 -43 b 59 7 66 5 62 7 b 22 -35 42 7 22 -16 b 27 -47 22 -40 24 -44 b 270 -133 101 -104 182 -133 z "},"E":{"ha":627,"x_min":0,"x_max":0,"o":"m 339 -133 b 513 -87 401 -133 458 -118 b 638 54 567 -57 609 -10 b 640 62 640 57 640 60 b 598 92 640 79 616 92 b 578 81 589 92 583 88 b 481 -31 555 31 523 -7 b 351 -67 440 -55 397 -67 b 123 157 197 -67 123 41 b 157 288 124 202 135 245 b 408 440 199 372 283 434 b 468 437 429 438 448 438 b 493 480 484 439 493 460 b 481 503 493 492 489 500 b 377 519 447 512 412 517 b 240 603 316 537 271 565 b 193 725 210 641 194 682 b 250 861 193 784 212 829 b 382 907 289 892 333 907 b 528 863 439 907 487 892 b 540 859 532 861 536 859 b 576 899 558 860 576 882 b 569 914 576 905 574 910 b 380 972 516 953 453 972 b 67 711 225 972 67 878 b 210 492 67 629 113 547 b 54 357 142 462 90 417 b 0 166 18 297 0 233 b 83 -41 1 83 28 14 b 339 -133 143 -102 229 -133 z "},"F":{"ha":652,"x_min":0,"x_max":0,"o":"m 254 -133 b 317 -91 285 -132 316 -116 b 315 -9 316 -75 315 -47 b 313 109 314 30 313 68 b 313 191 313 149 313 176 b 314 267 313 216 313 241 l 585 267 b 606 299 600 267 606 282 b 585 332 606 316 600 332 l 316 332 b 340 620 322 441 330 536 b 361 769 351 703 357 752 l 361 773 b 337 800 361 785 353 793 b 285 810 321 807 304 810 b 229 782 258 810 235 802 b 218 669 227 768 223 730 b 207 451 214 609 210 536 b 62 701 148 530 62 600 b 409 909 62 875 273 909 b 701 871 516 908 614 895 l 704 871 b 728 914 718 871 728 893 b 716 935 728 925 724 932 b 420 972 625 960 527 972 b 144 922 313 972 221 956 b -4 709 46 880 -3 808 b 35 573 -2 659 11 613 b 115 460 59 532 86 494 b 197 332 159 406 186 364 l 88 332 b 67 300 75 332 67 317 b 88 267 67 283 74 267 l 204 267 b 212 -103 205 92 208 -31 b 254 -133 215 -124 233 -133 z "},"G":{"ha":736,"x_min":0,"x_max":0,"o":"m 608 -133 b 671 -91 639 -132 669 -116 b 666 39 667 -49 666 -5 b 689 424 666 154 673 282 l 690 441 b 659 485 690 468 680 482 b 351 487 650 486 548 487 b 329 454 336 487 329 471 b 351 420 329 437 336 420 l 566 420 b 558 157 562 340 559 252 b 524 56 551 123 539 90 b 380 -68 494 -13 447 -66 b 248 5 327 -67 283 -43 b 168 190 212 52 186 114 b 142 426 151 265 142 344 b 201 758 142 555 161 666 b 377 908 243 858 302 908 b 559 680 469 908 530 832 b 585 665 562 670 570 665 b 623 690 603 665 623 674 l 623 694 b 359 972 582 880 494 972 b 98 800 244 972 157 905 b 9 419 39 694 9 557 b 96 40 9 281 37 145 b 365 -133 155 -65 245 -133 b 561 -17 450 -133 515 -94 b 566 -103 562 -46 564 -75 b 608 -133 568 -124 587 -133 z "},"H":{"ha":779,"x_min":0,"x_max":0,"o":"m 600 -133 b 642 -122 614 -133 628 -130 b 663 -91 656 -115 663 -104 b 659 76 660 -41 659 14 b 667 387 659 167 661 271 b 743 370 693 382 718 376 l 746 369 b 770 412 759 369 770 393 b 758 434 770 424 766 431 b 671 453 730 441 701 448 b 707 935 685 718 697 879 b 682 962 706 947 697 956 b 630 972 665 969 648 972 b 575 944 598 972 580 963 b 565 786 572 928 569 876 b 553 467 560 696 557 589 b 456 470 521 469 488 470 b 222 453 378 469 300 463 b 243 774 229 576 236 683 b 258 935 251 866 256 920 b 233 962 258 947 249 956 b 182 972 218 969 201 972 b 127 944 151 972 132 963 b 116 774 124 928 121 871 b 105 433 111 677 108 563 b -1 410 69 426 34 418 b -15 382 -10 408 -15 398 b 9 345 -15 363 -7 345 l 14 346 b 104 366 43 353 73 360 b 102 186 102 302 102 243 b 110 -104 102 74 104 -23 b 151 -133 113 -123 126 -133 b 214 -91 181 -133 214 -118 b 210 71 212 -43 210 12 b 220 387 210 163 214 268 b 451 404 296 398 374 404 b 552 401 485 404 519 403 b 550 201 551 330 550 263 b 558 -104 550 84 553 -18 b 600 -133 560 -123 574 -133 z "},"I":{"ha":389,"x_min":0,"x_max":0,"o":"m 409 -133 b 430 -100 422 -133 430 -117 b 409 -66 430 -83 422 -66 l 254 -66 b 252 63 252 -27 252 16 b 258 315 252 125 254 210 b 277 654 262 420 268 534 b 296 907 285 774 292 859 l 409 907 b 430 939 422 907 430 922 b 409 972 430 956 422 972 l 35 972 b 14 939 20 972 14 956 b 35 907 14 922 20 907 l 165 907 b 147 463 159 816 153 668 b 144 206 145 372 144 286 b 149 -66 144 106 146 16 l 35 -66 b 14 -100 20 -66 14 -83 b 35 -133 14 -117 20 -133 z "},"J":{"ha":592,"x_min":0,"x_max":0,"o":"m 220 -133 b 352 -96 273 -133 316 -121 b 520 465 464 -17 520 170 b 519 545 520 479 519 506 b 512 685 518 583 515 629 b 500 833 508 740 504 789 b 494 907 498 861 496 886 l 625 907 b 646 939 639 907 646 922 b 625 972 646 956 639 972 l 250 972 b 229 939 237 972 229 956 b 250 907 229 922 237 907 l 363 907 b 366 881 363 899 364 890 b 394 418 375 790 394 602 b 355 83 394 279 381 167 b 204 -68 324 -18 274 -68 b 78 18 153 -68 111 -39 b 22 171 52 64 33 115 b -7 191 18 184 9 191 b -43 161 -24 191 -43 182 b 37 -39 -24 76 2 9 b 220 -133 82 -102 143 -133 z "},"K":{"ha":659,"x_min":0,"x_max":0,"o":"m 628 -133 b 673 -100 648 -132 671 -117 b 672 -94 673 -98 673 -96 b 454 278 590 62 517 186 b 317 463 391 370 345 431 b 573 754 417 562 503 660 b 702 938 659 869 702 930 b 687 961 702 945 697 954 b 659 972 677 968 667 972 b 644 966 652 972 648 970 b 564 851 634 950 608 911 b 399 645 519 790 465 722 b 186 435 333 568 262 498 b 208 767 193 562 200 672 b 223 935 214 859 220 915 b 198 962 222 947 214 956 b 146 972 182 969 165 972 b 92 944 115 972 96 963 b 79 743 88 925 84 858 b 68 351 75 627 71 497 b 32 332 56 345 43 338 b 23 317 26 329 23 324 b 33 286 24 307 27 296 b 52 270 39 275 46 270 b 67 276 54 270 59 272 l 66 182 b 75 -104 66 68 69 -26 b 116 -133 77 -123 91 -133 b 179 -91 146 -133 179 -118 b 175 71 176 -43 175 11 b 182 348 175 152 178 244 b 268 418 212 370 240 393 b 401 238 296 387 340 328 b 614 -125 463 149 533 27 b 628 -133 616 -130 621 -133 z "},"L":{"ha":682,"x_min":0,"x_max":0,"o":"m 311 -133 b 684 9 431 -133 574 -54 b 696 31 692 16 696 22 b 664 71 696 50 681 68 b 654 67 661 71 657 69 b 331 -65 564 12 431 -65 b 196 44 269 -65 224 -28 b 158 304 171 108 158 195 b 172 553 158 385 163 468 b 201 781 180 637 191 713 b 228 931 212 848 221 898 l 229 935 b 203 962 228 947 219 956 b 153 972 188 969 171 972 b 97 944 121 972 102 963 b 62 713 85 889 74 812 b 45 410 51 615 45 514 b 185 -91 45 155 92 -12 b 311 -133 218 -119 260 -133 z "},"M":{"ha":899,"x_min":0,"x_max":0,"o":"m 786 -133 b 820 -114 808 -133 820 -127 l 820 938 b 758 972 820 960 788 972 b 712 952 734 972 720 966 l 428 329 l 216 940 b 140 972 208 960 174 972 b 85 944 114 972 90 964 b 71 715 81 922 77 846 b 59 191 63 520 59 345 b 68 -104 59 75 62 -24 b 109 -133 70 -123 83 -133 b 152 -122 123 -133 138 -130 b 172 -91 165 -115 172 -104 b 168 75 170 -43 168 13 b 178 389 168 151 172 255 b 201 779 184 522 191 652 l 391 235 b 441 211 397 219 419 211 b 496 231 465 211 490 218 l 754 795 l 754 -115 b 786 -133 754 -127 765 -133 z "},"N":{"ha":753,"x_min":0,"x_max":0,"o":"m 634 -133 b 677 -107 653 -133 677 -124 l 677 956 b 643 972 677 967 660 972 b 610 956 621 972 610 967 l 610 43 l 216 941 b 140 972 208 960 174 972 b 85 944 109 972 90 963 b 72 715 82 922 77 846 b 60 191 64 520 60 345 b 68 -104 60 75 62 -24 b 110 -133 71 -123 84 -133 b 153 -122 124 -133 138 -130 b 173 -91 166 -115 173 -104 b 168 78 170 -41 168 15 b 179 408 168 157 172 267 b 204 803 186 548 194 680 l 611 -123 b 634 -133 615 -130 623 -133 z "},"O":{"ha":715,"x_min":0,"x_max":0,"o":"m 366 -133 b 593 34 463 -133 538 -77 b 669 430 644 138 669 269 b 592 814 669 587 643 715 b 359 972 537 920 459 972 b 98 800 245 972 157 905 b 9 419 39 694 9 557 b 98 40 9 281 38 145 b 366 -133 157 -65 245 -133 z m 380 -68 b 248 5 328 -67 283 -43 b 169 190 213 52 186 114 b 142 426 151 265 142 344 b 201 758 142 555 162 666 b 378 908 244 858 303 908 b 547 759 449 908 505 859 b 604 429 585 668 604 558 b 579 192 604 347 595 267 b 505 6 562 116 538 54 b 380 -68 471 -42 430 -66 z "},"P":{"ha":694,"x_min":0,"x_max":0,"o":"m 321 258 b 286 260 309 258 297 258 b 317 787 294 465 304 640 b 286 820 316 802 306 813 b 250 826 274 824 262 826 b 214 821 241 826 229 825 b 188 786 199 818 191 806 b 177 467 184 696 180 590 l 149 499 b 58 677 102 548 60 602 b 97 800 58 725 71 766 b 325 907 148 868 233 907 b 510 836 399 907 460 884 b 595 604 566 782 595 705 b 558 430 595 544 583 486 b 452 297 534 374 498 330 b 321 258 415 271 371 258 z m 223 -133 b 266 -122 237 -133 252 -130 b 286 -93 279 -115 286 -105 b 286 -91 286 -92 286 -92 b 281 66 283 -45 281 7 b 283 208 281 110 282 157 b 336 205 302 206 319 205 b 521 256 403 205 465 222 b 653 404 576 290 621 339 b 702 609 686 468 702 536 b 648 814 701 692 683 761 b 510 934 612 868 566 908 b 334 972 454 960 395 972 b -8 682 161 972 -8 868 b 90 478 -8 596 41 534 b 174 326 132 430 168 383 b 173 186 174 277 173 231 b 182 -104 173 74 176 -23 b 223 -133 184 -123 197 -133 z "},"Q":{"ha":724,"x_min":0,"x_max":0,"o":"m 661 -133 b 684 -117 668 -133 675 -127 b 696 -87 692 -107 696 -97 b 690 -75 696 -82 694 -78 l 576 4 b 669 430 638 109 669 261 b 592 814 669 587 643 715 b 359 972 537 920 459 972 b 98 800 245 972 157 905 b 9 419 39 694 9 557 b 98 40 9 281 38 145 b 366 -133 157 -65 245 -133 b 538 -50 433 -133 491 -105 b 661 -133 617 -105 659 -133 z m 380 -68 b 248 5 328 -67 283 -43 b 169 190 213 52 186 114 b 142 426 151 265 142 344 b 201 758 142 555 162 666 b 378 908 244 858 303 908 b 547 759 449 908 505 859 b 604 429 585 668 604 558 b 584 216 604 355 597 285 b 526 39 571 148 551 89 l 338 171 b 330 173 336 172 333 173 b 307 158 323 173 315 168 b 294 128 299 148 295 138 b 300 117 294 123 296 119 l 488 -15 b 380 -68 458 -50 422 -67 z "},"R":{"ha":768,"x_min":0,"x_max":0,"o":"m 395 343 b 345 347 380 346 363 347 b 289 343 326 347 307 346 b 316 787 297 517 306 665 b 286 820 315 802 305 813 b 250 826 274 824 262 826 b 214 821 241 826 229 825 b 188 786 199 818 191 806 b 176 467 183 696 180 590 l 149 499 b 58 677 102 548 60 602 b 97 800 58 725 71 766 b 324 907 148 868 234 907 b 508 855 401 906 463 888 b 600 727 553 821 584 779 b 614 635 609 696 614 666 b 602 546 614 614 610 584 b 536 427 594 508 572 468 b 395 343 500 385 454 357 z m 682 -133 b 790 -90 718 -133 764 -116 b 795 -77 793 -85 795 -81 b 756 -37 795 -58 773 -37 b 743 -43 751 -37 747 -39 b 692 -64 731 -57 714 -64 b 589 90 627 -64 608 7 b 554 209 581 130 569 170 b 484 306 539 248 515 280 b 688 490 579 340 647 401 b 721 640 710 538 721 589 b 635 861 721 726 692 800 b 334 972 566 935 466 972 b -9 682 161 972 -9 868 b 90 478 -9 597 42 533 b 174 326 132 430 168 383 b 172 195 173 280 172 237 b 181 -104 172 79 175 -21 b 223 -133 184 -123 198 -133 b 265 -122 237 -133 252 -130 b 286 -91 279 -115 286 -104 b 281 71 283 -44 281 10 b 286 288 281 135 283 208 b 342 283 304 285 323 283 l 360 284 b 444 216 398 275 426 252 b 488 92 462 180 477 138 b 548 -61 507 23 526 -28 b 682 -133 578 -109 623 -133 z "},"S":{"ha":629,"x_min":0,"x_max":0,"o":"m 289 -133 b 441 -98 342 -132 393 -121 b 604 168 535 -52 601 37 b 566 303 603 219 591 264 b 355 495 517 381 437 440 b 219 600 303 529 258 564 b 157 726 180 636 160 678 b 214 861 157 785 176 829 b 347 907 252 892 296 907 b 492 863 403 907 451 892 b 503 859 496 861 499 859 b 540 899 522 860 540 882 b 532 914 540 905 537 910 b 344 972 480 953 418 972 b 31 711 190 972 31 878 b 107 538 31 650 56 592 b 272 405 143 499 198 455 b 416 291 327 368 375 330 b 480 158 456 252 478 208 b 450 35 479 109 469 68 b 270 -65 410 -33 341 -65 b 146 -28 227 -65 186 -53 b 52 82 106 -4 75 33 b 32 92 47 89 41 92 b -10 63 14 92 -10 80 b -8 55 -10 61 -9 58 b 117 -87 21 -8 63 -56 b 289 -133 170 -117 228 -133 z "},"T":{"ha":677,"x_min":0,"x_max":0,"o":"m 352 -133 b 414 -92 382 -132 412 -116 b 410 191 411 -82 410 12 b 442 680 410 336 420 499 b 458 795 450 744 455 783 b 434 827 458 810 450 820 b 382 837 418 833 401 837 b 327 808 350 837 332 827 b 306 501 319 774 313 671 b 163 621 264 552 212 589 b 53 743 102 661 55 697 b 114 846 54 787 74 821 b 269 895 154 869 205 886 b 463 909 332 904 396 909 b 773 873 576 909 679 897 b 798 919 787 873 798 897 b 786 939 798 929 793 935 b 478 972 703 961 600 972 b 247 954 399 972 322 966 b 61 887 172 941 109 919 b -14 753 12 855 -13 810 b 33 647 -12 711 3 676 b 134 563 61 617 95 589 b 248 467 177 534 215 503 b 302 335 281 432 299 388 b 301 281 302 307 302 288 b 310 -103 303 64 307 -64 b 352 -133 312 -123 326 -133 z "},"U":{"ha":790,"x_min":0,"x_max":0,"o":"m 642 -133 b 684 -122 656 -133 671 -130 b 705 -91 698 -115 705 -104 b 701 68 702 -44 701 9 b 729 709 701 236 710 450 b 749 931 739 837 745 911 b 724 962 749 945 741 955 b 673 972 708 969 691 972 b 617 944 641 972 622 963 b 588 735 610 874 600 805 b 471 260 556 553 517 395 b 281 0 412 90 348 3 b 166 370 204 3 166 127 b 197 845 166 498 176 656 b 203 908 200 873 202 894 b 172 940 202 922 192 933 b 135 946 159 944 147 946 b 100 941 126 946 115 945 b 75 907 85 938 77 926 l 68 818 b 51 458 57 686 51 566 b 53 342 51 433 52 395 b 75 157 54 289 61 227 b 141 -14 88 87 111 31 b 267 -81 172 -57 214 -79 b 406 -6 319 -79 365 -54 b 515 184 448 43 484 106 b 595 431 547 261 573 344 b 592 197 593 347 592 269 b 600 -104 592 82 595 -18 b 642 -133 603 -123 617 -133 z "},"V":{"ha":713,"x_min":0,"x_max":0,"o":"m 331 -133 b 499 -45 399 -131 455 -102 b 604 172 543 11 578 83 b 661 450 629 260 648 353 b 684 846 684 645 684 774 b 683 920 684 874 684 899 b 650 941 682 934 671 941 b 617 918 629 941 618 933 l 618 883 b 608 648 618 817 614 739 b 555 267 597 505 579 378 b 437 -22 526 130 486 34 b 347 -68 411 -53 381 -68 b 224 109 287 -68 248 3 b 199 288 213 163 204 222 b 189 589 188 420 189 524 b 194 846 189 663 191 749 b 196 940 195 888 196 920 b 130 972 195 961 163 972 b 64 941 97 972 66 962 b 61 840 64 915 63 881 b 57 589 58 762 57 678 b 331 -133 57 112 149 -129 z "},"W":{"ha":1015,"x_min":0,"x_max":0,"o":"m 686 -133 b 869 12 763 -133 824 -85 b 968 713 935 157 968 390 b 963 953 968 829 966 909 b 928 972 962 966 946 972 b 898 951 908 972 898 966 b 900 818 899 922 900 877 b 842 120 900 507 881 274 b 711 -68 811 -5 767 -68 b 592 401 631 -68 592 89 b 602 713 592 482 595 586 b 535 751 602 738 570 751 b 470 711 503 751 472 738 l 469 694 b 294 -15 463 222 404 -15 b 180 461 218 -15 180 144 b 189 787 180 569 183 677 b 193 887 191 834 193 867 b 127 920 191 908 159 920 b 61 888 94 920 62 909 b 58 789 60 864 60 831 b 52 527 54 699 52 611 b 271 -81 52 126 125 -77 b 486 162 372 -79 444 2 b 686 -133 519 -35 585 -133 z "},"X":{"ha":713,"x_min":0,"x_max":0,"o":"m 587 -133 b 715 -16 652 -133 695 -94 l 715 -12 b 674 12 715 3 696 12 b 651 -1 662 12 654 7 b 601 -55 640 -37 623 -55 b 520 5 576 -55 549 -35 b 432 161 491 45 462 96 b 346 370 402 225 374 295 b 707 867 452 528 573 694 l 741 912 b 745 924 743 916 745 920 b 725 956 745 935 738 945 b 688 972 712 967 700 972 b 673 966 682 972 677 970 b 315 458 564 823 444 654 b 222 759 277 567 246 667 b 178 949 197 850 182 913 b 174 960 178 954 176 958 b 136 972 165 968 153 972 b 108 970 132 972 122 972 b 62 950 94 969 78 962 b 50 924 54 943 50 934 b 106 667 56 863 75 778 b 226 319 137 555 177 439 b 5 -100 129 164 55 24 b 4 -105 5 -102 4 -103 b 45 -133 4 -119 26 -133 b 68 -120 56 -133 64 -129 b 260 240 111 -12 176 108 b 361 52 292 171 326 109 b 587 -133 432 -60 509 -133 z "},"Y":{"ha":621,"x_min":0,"x_max":0,"o":"m 292 -133 b 334 -122 306 -133 320 -130 b 355 -91 348 -115 355 -104 b 351 71 352 -43 351 11 b 357 335 351 149 353 237 b 720 906 473 529 594 720 b 729 926 724 912 729 918 b 709 958 729 937 722 947 b 672 972 696 968 684 972 b 655 965 665 972 659 970 b 330 435 550 806 441 630 b 201 749 279 547 237 652 b 134 954 165 847 142 915 b 97 972 132 966 119 972 b 39 958 79 972 59 968 b 8 920 18 947 8 935 b 9 915 8 918 8 916 b 106 609 30 814 62 713 b 243 315 151 505 196 407 b 241 187 242 270 241 227 b 250 -104 241 73 244 -24 b 292 -133 252 -123 266 -133 z "},"Z":{"ha":647,"x_min":0,"x_max":0,"o":"m 454 -133 b 652 -132 550 -133 616 -133 b 671 -115 661 -132 668 -125 b 674 -98 673 -109 674 -104 b 651 -66 674 -79 667 -68 b 431 -67 610 -67 537 -67 b 113 -63 324 -67 218 -66 b 329 296 165 35 237 154 b 585 679 420 437 506 565 b 722 873 663 793 709 857 b 726 886 725 877 726 881 b 663 966 726 916 688 962 b 506 972 614 970 562 972 b 75 947 364 972 220 964 b 56 912 62 944 56 932 b 80 867 56 890 64 867 b 207 878 104 870 146 873 b 481 888 308 885 399 888 b 572 887 511 888 542 888 b 391 612 528 822 468 730 b 3 -50 195 309 66 88 b 0 -60 1 -54 0 -57 b 20 -106 0 -77 7 -92 b 60 -128 33 -119 46 -127 b 454 -133 188 -132 319 -133 z "},"[":{"ha":330,"x_min":0,"x_max":0,"o":"m 555 -381 b 577 -349 570 -381 577 -366 b 555 -315 577 -332 570 -315 l 145 -315 b 142 -140 143 -267 142 -209 b 149 227 142 -56 144 66 b 168 761 153 387 159 565 b 188 1155 176 956 183 1088 l 555 1155 b 577 1188 570 1155 577 1171 b 555 1221 577 1205 570 1221 l 114 1221 b 59 1193 82 1221 64 1212 b 50 972 56 1176 53 1103 b 34 0 39 626 34 302 b 42 -353 34 -160 37 -277 b 83 -381 44 -372 58 -381 z "},"\\":{"ha":645,"x_min":0,"x_max":0,"o":"m 549 -133 b 611 -92 579 -132 609 -117 b 609 -82 611 -89 610 -85 b 458 298 576 14 526 140 b 263 732 389 455 325 600 b 153 960 201 865 165 941 b 125 972 146 968 137 972 b 66 951 107 972 87 965 b 34 909 45 937 34 922 b 37 897 34 905 35 901 b 151 678 49 879 86 806 b 353 256 214 550 281 409 b 508 -111 424 104 475 -19 b 549 -133 515 -125 528 -133 z "},"]":{"ha":330,"x_min":0,"x_max":0,"o":"m -226 1221 b -248 1189 -240 1221 -248 1206 b -226 1156 -248 1172 -240 1156 l 184 1156 b 188 980 186 1107 188 1049 b 181 614 188 897 186 775 b 162 80 176 454 170 275 b 142 -315 153 -116 146 -248 l -226 -315 b -248 -348 -240 -315 -248 -331 b -226 -381 -248 -365 -240 -381 l 216 -381 b 271 -353 248 -381 266 -372 b 281 -132 273 -336 277 -262 b 296 840 291 214 296 538 b 288 1193 296 1000 293 1118 b 246 1221 286 1212 272 1221 z "},"^":{"ha":488,"x_min":0,"x_max":0,"o":"m 411 530 b 454 562 427 530 454 543 b 271 962 454 564 393 697 b 243 972 267 969 258 972 b 217 962 229 972 220 969 b 34 562 95 697 34 564 b 77 530 34 543 60 530 b 96 541 85 530 92 534 l 244 862 l 392 541 b 411 530 397 534 403 530 z "},"_":{"ha":855,"x_min":0,"x_max":0,"o":"m 781 -381 b 801 -350 794 -381 801 -366 b 781 -319 801 -334 794 -319 l 75 -319 b 54 -349 62 -319 54 -334 b 75 -381 54 -366 61 -381 z "},"`":{"ha":286,"x_min":0,"x_max":0,"o":"m 213 435 b 252 475 231 436 252 455 b 245 492 252 481 250 486 l 123 639 b 106 646 119 644 113 646 b 60 618 92 646 77 637 b 34 567 43 600 34 583 b 44 547 34 559 37 552 l 203 438 b 213 435 206 436 210 435 z "},"a":{"ha":666,"x_min":0,"x_max":0,"o":"m 124 62 b 96 124 105 62 96 88 b 127 257 96 170 106 214 b 218 331 151 307 182 331 b 323 254 251 331 286 305 b 232 143 296 216 265 179 b 124 62 183 90 147 62 z m 463 -76 b 683 113 542 -76 616 -13 b 728 212 713 171 728 203 b 692 242 728 231 711 242 b 666 227 680 242 671 237 b 593 93 644 178 619 133 b 490 -1 554 30 519 -1 b 443 123 458 -1 443 40 b 455 283 443 163 447 216 b 460 338 458 312 460 330 b 392 378 460 365 427 378 b 330 348 362 378 335 369 b 208 399 298 380 258 397 b 87 361 159 398 119 385 b -9 155 22 311 -9 231 b 20 46 -9 112 0 75 b 106 0 39 16 68 1 b 323 147 172 3 244 52 b 463 -76 329 -1 375 -76 z "},"b":{"ha":604,"x_min":0,"x_max":0,"o":"m 125 87 b 148 187 129 111 136 144 b 194 303 159 229 174 268 b 267 359 214 338 238 357 b 336 245 315 359 336 309 b 319 140 336 212 330 176 b 258 145 299 144 279 145 b 125 87 197 145 153 126 z m 208 -66 b 404 64 300 -66 366 -12 b 479 60 429 62 454 60 b 663 199 556 60 618 106 b 667 212 665 203 667 208 b 633 242 667 231 651 242 b 604 227 618 242 609 237 b 539 146 586 187 564 161 b 471 125 514 132 491 125 b 429 127 453 125 439 126 b 441 225 437 159 441 191 b 404 366 441 280 429 327 b 288 426 379 404 340 424 b 112 279 209 424 151 374 b 157 718 121 448 136 593 b 132 745 157 729 149 738 b 81 755 115 751 98 755 b 26 727 48 755 30 745 b 12 578 22 709 17 659 b -1 234 3 458 -1 344 b 22 -30 -1 66 7 -21 b 50 -37 30 -35 39 -37 b 109 -9 73 -37 99 -26 b 208 -66 122 -41 155 -66 z m 199 3 b 170 29 180 3 170 15 b 262 79 170 51 195 79 b 294 78 273 79 283 79 b 199 3 268 28 236 3 z "},"c":{"ha":538,"x_min":0,"x_max":0,"o":"m 221 -109 b 450 -9 302 -109 379 -76 b 597 199 509 46 558 115 b 600 212 599 203 600 208 b 564 243 600 231 583 243 b 538 227 552 243 543 237 b 466 111 521 190 496 151 b 359 5 435 70 399 35 b 230 -42 315 -26 273 -42 b 105 138 143 -42 105 42 b 120 242 105 174 110 208 b 224 358 140 309 176 358 b 312 309 254 358 283 342 b 328 302 317 304 322 302 b 367 339 347 302 367 321 b 361 353 367 344 365 348 b 212 425 317 400 268 425 b 91 385 163 425 123 412 b -8 153 25 333 -8 243 b 17 27 -8 109 0 67 b 221 -109 50 -54 117 -109 z "},"d":{"ha":661,"x_min":0,"x_max":0,"o":"m 124 62 b 95 125 104 62 95 83 b 218 331 95 203 139 331 b 323 254 251 331 286 305 b 232 143 296 216 265 179 b 124 62 183 90 147 62 z m 472 -76 b 576 -33 512 -75 547 -60 b 714 187 636 21 676 100 b 723 212 720 199 723 208 b 687 242 723 231 705 242 b 661 227 674 242 665 237 b 582 71 629 157 603 104 b 488 -9 549 18 517 -9 b 435 176 452 -9 435 53 b 473 591 435 284 448 422 b 493 713 481 651 488 692 b 426 755 493 741 459 755 b 375 726 397 755 380 745 b 326 351 351 612 335 487 b 208 399 296 381 256 397 b 87 361 159 398 119 385 b -9 153 22 312 -9 234 b 20 46 -9 111 0 75 b 106 0 39 16 68 1 b 328 154 174 2 248 54 b 472 -76 340 3 389 -74 z "},"e":{"ha":483,"x_min":0,"x_max":0,"o":"m 202 -111 b 415 -9 283 -111 355 -77 b 542 199 459 40 502 110 b 545 212 544 203 545 208 b 509 242 545 231 526 242 b 483 227 496 242 488 237 b 216 -43 400 47 311 -43 b 106 132 138 -43 106 42 l 106 150 b 216 185 149 154 186 165 b 309 332 277 223 309 281 b 205 423 309 381 275 421 b 88 383 158 422 119 410 b -8 150 25 331 -8 242 b 15 24 -8 105 -1 63 b 202 -111 45 -55 107 -111 z m 115 217 b 214 356 131 296 167 354 b 242 329 233 355 242 347 b 208 265 242 311 231 289 b 115 217 186 241 155 225 z "},"f":{"ha":334,"x_min":0,"x_max":0,"o":"m 141 -256 b 240 -123 216 -256 240 -186 b 202 46 239 -60 227 -3 b 393 199 283 54 347 104 b 397 212 395 203 397 208 b 361 242 397 231 380 242 b 334 227 349 242 340 237 b 209 118 305 169 264 133 b 156 110 189 113 171 110 b 114 138 146 120 132 130 b 117 208 115 161 115 184 b 138 524 121 321 129 426 b 160 718 146 613 153 677 b 135 745 159 729 151 738 b 84 755 119 751 102 755 b 28 726 52 755 33 745 b 12 560 22 696 17 641 b -1 168 3 446 -1 315 b 36 -150 -1 28 12 -77 b 141 -256 59 -221 94 -256 z m 153 -185 b 113 56 127 -185 114 -104 l 119 54 b 159 -28 135 33 149 5 b 174 -123 169 -61 174 -93 b 153 -185 174 -137 171 -185 z "},"g":{"ha":631,"x_min":0,"x_max":0,"o":"m 237 -429 b 391 -293 307 -427 357 -382 b 437 -66 415 -227 431 -151 b 578 47 486 -33 533 4 b 690 199 624 89 661 140 b 694 212 692 203 694 208 b 658 242 694 231 676 242 b 631 227 645 242 636 237 b 441 17 593 149 530 79 b 443 117 442 51 443 84 b 440 269 443 140 442 191 b 438 355 439 304 438 332 l 439 386 b 378 426 438 411 410 425 b 320 389 348 426 323 414 l 320 356 b 208 399 290 383 253 397 b 86 361 159 398 118 385 b -10 155 22 311 -10 231 b 19 46 -10 112 -1 76 b 106 0 39 16 67 1 b 326 153 172 2 245 53 b 328 35 328 114 328 75 b 327 -60 328 4 328 -28 b 129 -309 219 -130 129 -197 b 156 -393 129 -341 138 -369 b 237 -429 174 -416 201 -428 z m 239 -360 b 202 -315 220 -360 203 -346 b 322 -144 203 -248 251 -195 b 303 -273 319 -192 313 -235 b 239 -360 289 -331 268 -360 z m 123 62 b 94 124 104 62 94 89 b 126 257 94 170 105 214 b 217 331 151 307 181 331 b 323 254 250 331 286 305 b 231 143 295 216 264 179 b 123 62 182 90 146 62 z "},"h":{"ha":623,"x_min":0,"x_max":0,"o":"m 419 -78 b 534 -33 463 -77 502 -62 b 618 73 567 -3 595 32 b 677 189 642 114 661 153 b 685 212 682 200 685 208 b 650 242 685 231 668 242 b 623 227 637 242 627 237 b 549 97 604 186 580 143 b 446 4 507 35 472 4 b 414 73 420 4 414 32 b 418 146 414 94 415 119 b 422 239 420 176 422 208 b 296 418 422 332 402 418 b 111 252 206 418 146 342 b 156 718 119 433 134 588 b 132 745 156 729 148 738 b 79 755 116 751 98 755 b 24 726 47 755 29 745 b 10 557 21 706 16 650 b -1 222 3 449 -1 338 b 21 -30 -1 63 7 -21 b 45 -37 28 -35 37 -37 b 113 0 79 -37 108 -22 b 124 64 115 15 118 36 b 178 246 140 136 157 197 b 264 349 207 315 235 349 b 302 267 296 349 302 313 b 300 195 302 243 301 219 b 297 116 298 169 297 142 b 306 22 297 83 300 52 b 419 -78 317 -37 349 -76 z "},"i":{"ha":342,"x_min":0,"x_max":0,"o":"m 139 -76 b 358 113 218 -76 292 -13 b 404 212 389 171 404 203 b 368 242 404 231 387 242 b 342 227 355 242 347 237 b 270 93 319 178 295 133 b 166 -1 231 30 196 -1 b 119 115 135 -1 119 37 b 131 283 119 153 123 209 b 136 350 134 315 136 338 b 68 392 136 378 101 392 b 6 357 37 392 9 380 b -1 184 1 281 -1 223 b 139 -76 -1 11 45 -76 z m 80 439 b 136 464 102 439 120 448 b 159 524 151 480 159 500 b 136 583 159 547 151 566 b 80 608 120 600 102 608 b 24 583 58 608 39 600 b 1 524 8 566 1 547 b 80 439 1 477 36 439 z "},"j":{"ha":296,"x_min":0,"x_max":0,"o":"m -100 -429 b 39 -334 -42 -429 4 -397 b 110 -56 76 -265 100 -172 b 248 52 158 -25 203 11 b 355 199 291 92 327 141 b 359 212 357 203 359 208 b 323 242 359 231 341 242 b 296 227 310 242 301 237 b 115 27 261 154 201 87 b 118 133 117 63 117 98 b 117 309 118 182 117 241 b 117 372 117 341 117 362 b 54 412 117 399 87 412 b -2 375 25 412 1 400 l -3 341 b -1 262 -3 320 -2 294 b 1 70 1 205 1 141 b -1 -49 1 30 0 -9 b -204 -310 -112 -117 -204 -187 b -100 -429 -204 -373 -171 -429 z m -102 -362 b -136 -316 -126 -362 -136 -338 b -7 -135 -134 -242 -83 -187 b -31 -271 -12 -183 -20 -228 b -102 -362 -48 -332 -72 -362 z m 47 453 b 102 477 68 453 87 461 b 125 537 118 494 125 513 b 102 597 125 560 118 580 b 47 621 87 613 68 621 b -9 597 24 621 6 613 b -33 537 -25 580 -33 560 b 47 453 -33 490 3 453 z "},"k":{"ha":551,"x_min":0,"x_max":0,"o":"m 49 -64 b 112 -25 78 -63 107 -49 b 147 127 117 7 128 58 l 155 128 b 359 -50 190 40 258 -50 b 610 199 453 -50 536 33 b 614 212 612 203 614 208 b 578 242 614 231 597 242 b 551 227 565 242 556 237 b 385 31 492 96 437 31 b 267 160 336 31 297 74 b 381 319 345 200 381 262 b 273 426 381 380 342 426 b 168 365 233 426 197 406 b 111 250 144 333 125 295 b 156 718 121 442 136 598 b 131 745 155 729 146 738 b 80 755 115 751 98 755 b 25 726 47 755 29 745 b 9 557 20 707 15 650 b -1 245 3 463 -1 359 b 7 -34 -1 132 2 39 b 49 -64 9 -54 27 -64 z m 173 210 b 194 269 175 219 182 239 b 264 349 215 322 239 349 b 294 313 284 349 294 336 b 173 210 294 281 254 237 z "},"l":{"ha":336,"x_min":0,"x_max":0,"o":"m 147 -76 b 330 65 217 -74 278 -26 b 396 199 345 92 367 137 b 399 210 398 202 399 206 b 363 242 399 231 380 242 b 336 227 350 242 341 237 b 258 71 304 155 279 104 b 164 -9 224 18 193 -9 b 111 176 128 -9 111 53 b 123 387 111 241 115 311 b 148 591 130 463 139 531 b 168 713 157 651 163 692 l 169 718 b 102 755 169 740 136 755 b 51 726 73 755 56 745 b 20 534 42 684 31 621 b -1 255 6 438 -1 345 b 147 -76 -1 37 49 -74 z "},"m":{"ha":903,"x_min":0,"x_max":0,"o":"m 699 -78 b 898 73 775 -76 842 -25 b 958 189 922 114 941 153 b 965 212 962 200 965 208 b 929 242 965 231 947 242 b 903 227 916 242 907 237 b 829 97 881 182 857 139 b 725 4 787 35 753 4 b 693 68 704 4 693 26 b 697 141 694 90 695 115 b 702 238 701 176 702 209 b 575 404 702 322 681 404 b 399 250 488 404 432 334 b 275 378 387 334 345 376 b 125 254 203 378 154 336 b 133 386 127 299 130 343 b 70 424 133 411 102 424 b 3 386 37 424 5 412 b -1 216 1 328 -1 271 b 7 -34 -1 130 2 47 b 54 -64 10 -54 26 -64 b 101 -52 71 -64 86 -60 b 125 -20 116 -43 124 -33 b 132 37 125 -7 128 12 b 249 309 144 138 185 309 b 293 175 278 309 293 264 b 288 45 292 131 291 88 b 340 19 288 27 311 19 b 404 45 370 20 399 28 b 458 232 419 117 437 180 b 543 335 485 300 513 335 b 581 254 575 335 581 300 b 579 180 581 229 581 205 b 576 95 577 152 576 123 b 699 -78 576 4 599 -75 z "},"n":{"ha":635,"x_min":0,"x_max":0,"o":"m 431 -77 b 693 195 534 -77 622 14 b 697 212 696 202 697 208 b 661 242 697 231 680 242 b 635 227 648 242 640 237 b 561 97 618 189 593 146 b 458 4 519 35 485 4 b 426 76 431 4 426 33 b 430 150 426 98 427 122 b 434 242 433 180 434 212 b 308 418 434 334 414 418 b 123 231 226 418 164 355 b 133 386 125 284 129 336 b 69 424 133 412 102 424 b 2 386 37 424 5 412 b -1 208 0 321 -1 261 b 7 -34 -1 122 2 41 b 54 -64 10 -54 26 -64 b 102 -52 71 -64 87 -60 b 125 -20 117 -44 125 -33 b 157 137 128 6 139 68 b 189 237 166 172 177 205 b 276 349 214 301 243 349 b 314 269 301 349 314 322 b 309 115 314 224 309 168 l 309 96 b 334 -26 309 49 317 8 b 431 -77 351 -60 383 -77 z "},"o":{"ha":588,"x_min":0,"x_max":0,"o":"m 198 -68 b 364 30 272 -68 328 -36 b 530 77 423 33 479 49 b 646 197 582 105 621 145 b 650 212 649 203 650 208 b 614 242 650 231 633 241 b 588 227 602 242 593 237 b 391 99 552 155 476 112 b 401 175 397 124 401 149 b 378 290 401 215 393 254 b 199 414 349 363 288 414 b 85 378 153 414 116 401 b -5 170 25 331 -5 252 b 18 56 -5 130 2 92 b 198 -68 47 -17 108 -68 z m 281 100 b 137 249 199 116 140 165 b 154 315 137 271 142 292 b 206 350 165 336 182 348 b 270 297 234 348 256 330 b 291 184 284 264 291 226 b 281 100 291 155 288 127 z m 195 3 b 111 125 146 5 119 56 b 255 39 146 81 195 53 b 195 3 240 16 220 4 z "},"p":{"ha":625,"x_min":0,"x_max":0,"o":"m 37 -419 b 78 -409 50 -419 64 -416 b 99 -377 92 -402 99 -391 b 95 -233 96 -330 95 -282 b 104 -7 95 -160 98 -85 b 200 -66 117 -46 149 -66 b 396 64 293 -66 359 -12 b 472 60 421 62 447 60 b 588 89 512 60 551 70 b 682 196 625 107 656 143 b 687 212 686 203 687 208 b 652 242 687 231 669 242 b 625 227 639 242 630 237 b 465 125 586 148 529 125 b 420 127 447 125 432 126 b 434 222 429 158 433 190 b 396 365 434 278 421 326 b 281 426 371 404 332 424 b 141 346 223 425 177 398 l 142 360 b 115 390 142 373 133 383 b 67 399 99 396 83 399 b 39 397 62 399 53 398 b 12 370 26 395 16 386 b -1 216 8 352 4 300 b -14 -148 -9 97 -14 -24 b -5 -390 -14 -233 -11 -314 b 37 -419 -2 -410 12 -419 z m 116 80 b 144 201 123 117 132 158 b 191 311 157 243 172 280 b 259 359 210 341 233 357 b 328 245 307 359 328 309 b 312 140 328 210 322 175 b 250 145 291 144 271 145 b 116 80 184 145 138 117 z m 191 3 b 161 29 172 3 161 15 b 254 79 161 51 189 79 b 286 78 265 79 276 79 b 191 3 260 28 228 3 z "},"q":{"ha":677,"x_min":0,"x_max":0,"o":"m 124 62 b 95 126 104 62 95 83 b 127 258 95 171 106 215 b 218 331 151 307 182 331 b 323 254 251 331 286 305 b 232 143 296 216 265 179 b 124 62 183 90 147 62 z m 488 -387 b 584 -246 552 -386 584 -339 b 528 -29 584 -174 566 -101 b 653 48 583 -18 624 8 b 732 188 682 87 708 134 b 740 212 737 199 740 208 b 704 242 740 231 721 242 b 677 227 691 242 682 237 b 635 144 666 201 652 174 b 498 36 595 73 550 37 b 480 38 492 36 486 37 b 442 62 469 49 456 57 b 471 397 450 208 460 320 b 447 429 471 412 463 422 b 396 439 431 435 414 439 b 340 409 363 439 345 429 b 332 346 338 396 335 375 b 208 399 300 379 259 397 b 87 361 159 398 119 385 b -9 155 22 311 -9 231 b 20 46 -9 112 0 76 b 106 0 39 16 68 1 b 318 142 170 2 240 50 b 317 63 317 116 317 90 b 334 -166 317 -19 322 -96 b 488 -387 357 -311 409 -385 z m 492 -321 b 439 -77 456 -319 439 -237 l 439 -18 l 444 -20 b 500 -134 469 -51 487 -89 b 519 -265 513 -178 519 -222 b 492 -321 519 -302 510 -321 z "},"r":{"ha":544,"x_min":0,"x_max":0,"o":"m 341 -76 b 561 113 420 -76 494 -13 b 606 212 591 172 606 205 b 570 242 606 231 589 242 b 544 227 557 242 549 237 b 472 93 517 170 493 126 b 368 -1 433 30 398 -1 b 321 132 336 -1 321 43 b 333 309 323 197 327 256 b 338 364 336 334 338 353 b 270 405 338 391 303 405 b 208 373 240 405 213 395 b 102 271 175 309 140 275 b 50 349 71 271 50 298 b 58 410 50 367 52 387 l 59 417 b 9 448 59 436 35 448 b -45 410 -15 448 -39 437 b -52 351 -50 389 -52 369 b 78 200 -52 252 8 200 b 201 257 120 201 161 220 l 200 217 b 224 26 200 138 208 74 b 341 -76 245 -42 285 -76 z "},"s":{"ha":416,"x_min":0,"x_max":0,"o":"m 83 -132 b 158 -115 109 -132 134 -126 b 244 26 216 -88 244 -41 b 374 76 292 35 335 52 b 475 198 414 100 447 140 b 479 212 477 203 479 208 b 443 242 479 231 461 242 b 416 227 431 242 422 237 b 335 127 394 181 367 148 b 231 85 303 106 269 92 b 155 200 214 129 185 166 b 99 298 125 234 99 265 b 131 359 99 328 110 348 b 162 368 140 365 151 368 b 208 355 176 368 191 363 b 216 353 211 354 214 353 b 235 363 222 353 229 357 b 249 396 244 373 249 384 b 239 414 249 404 245 410 b 151 436 211 429 181 436 b -12 292 74 436 -12 389 b 113 66 -12 187 73 123 b -20 -43 54 56 -20 27 b 83 -132 -20 -103 28 -132 z m 70 -64 b 47 -44 55 -64 47 -57 b 134 8 47 -18 76 -1 b 110 -45 132 -16 124 -33 b 70 -64 96 -58 83 -64 z "},"t":{"ha":329,"x_min":0,"x_max":0,"o":"m 142 -77 b 290 20 195 -77 243 -45 b 383 187 321 62 351 117 b 391 212 389 199 391 208 b 356 242 391 231 374 241 b 329 227 343 242 334 237 b 260 96 308 180 285 136 b 161 4 221 35 189 4 b 108 170 106 4 108 129 b 125 420 109 241 114 325 l 254 420 b 277 456 268 420 277 437 b 256 487 277 472 270 487 l 133 487 b 151 610 139 534 145 574 l 151 616 b 87 657 151 642 120 657 b 33 623 60 657 38 646 b 14 487 26 584 20 538 l -98 487 b -119 454 -113 487 -119 471 b -98 420 -119 437 -112 420 l 8 420 b -1 245 3 359 0 300 b 1 165 -1 221 0 195 b 142 -77 8 4 55 -77 z "},"u":{"ha":693,"x_min":0,"x_max":0,"o":"m 490 -76 b 652 24 549 -76 603 -43 b 752 199 686 68 719 126 b 755 212 754 203 755 208 b 720 242 755 231 736 242 b 693 227 707 242 698 237 b 621 93 671 178 646 133 b 517 -1 581 30 547 -1 b 470 121 480 -1 470 54 b 482 282 472 180 476 233 b 488 338 486 311 488 330 b 420 378 488 365 454 378 b 358 350 391 378 366 369 b 313 219 341 298 326 254 b 174 31 269 98 222 35 b 127 159 142 33 127 75 b 140 332 127 210 132 268 b 142 341 141 335 142 338 b 119 374 142 355 134 366 b 70 385 103 381 87 385 b 31 378 56 385 43 382 b -1 205 10 368 -1 311 b 149 -37 -1 43 49 -37 b 351 142 232 -37 299 22 b 490 -76 357 -3 404 -76 z "},"v":{"ha":562,"x_min":0,"x_max":0,"o":"m 165 -92 b 336 43 243 -92 300 -33 b 389 35 351 37 369 35 b 517 77 431 35 474 49 b 621 199 561 105 595 146 b 625 212 623 203 625 208 b 589 242 625 231 606 242 b 562 227 576 242 568 237 b 484 134 543 186 516 155 b 391 100 452 111 421 100 b 361 105 380 100 370 102 b 395 300 383 172 395 237 b 327 395 395 363 372 395 b 232 226 270 395 232 312 b 281 79 232 165 248 116 b 193 -23 256 11 227 -23 b 146 9 173 -23 157 -12 b 119 182 128 46 119 104 b 131 363 119 251 123 311 b 109 393 131 376 123 387 b 60 401 93 399 77 401 b 31 397 49 401 39 400 b -1 212 9 389 -1 327 b 33 7 -1 128 11 60 b 165 -92 61 -59 104 -92 z m 308 166 b 298 231 302 187 298 209 b 307 296 298 256 301 277 b 323 324 311 314 317 323 b 328 303 326 323 328 317 b 308 166 328 267 321 221 z "},"w":{"ha":842,"x_min":0,"x_max":0,"o":"m 445 -92 b 616 43 524 -92 580 -33 b 669 35 632 37 649 35 b 798 77 711 35 755 49 b 901 199 842 105 876 146 b 905 212 903 203 905 208 b 869 242 905 231 887 242 b 842 227 857 242 848 237 b 764 134 823 186 796 155 b 671 100 732 111 701 100 b 642 105 660 100 650 102 b 675 300 664 172 675 237 b 607 395 675 363 652 395 b 512 226 549 395 513 312 b 562 79 512 164 528 115 b 473 -23 535 11 506 -23 b 399 193 424 -23 399 49 b 406 325 399 245 402 289 l 407 327 b 347 357 405 347 377 357 b 286 324 318 357 290 347 b 258 136 277 235 268 172 b 177 43 240 74 213 43 b 125 176 134 43 125 106 b 142 353 125 215 130 274 b 119 386 142 368 134 378 b 69 397 103 393 87 397 b 12 366 35 397 15 387 b -1 211 3 311 -1 260 b 155 -24 -1 54 51 -24 b 295 64 216 -24 263 5 b 445 -92 314 -22 360 -92 z m 588 166 b 578 231 582 187 578 209 b 587 296 578 256 581 277 b 603 324 592 314 597 323 b 608 303 606 323 608 317 b 588 166 608 267 602 221 z "},"x":{"ha":498,"x_min":0,"x_max":0,"o":"m -24 -97 b -12 -92 -20 -97 -16 -95 l 71 9 b 236 -91 113 -58 168 -91 b 557 197 361 -91 468 5 b 561 212 559 203 561 208 b 525 242 561 231 543 242 b 498 227 512 242 503 237 b 404 71 472 169 440 117 b 256 -21 355 9 305 -21 b 146 100 207 -21 170 19 l 341 338 b 346 350 345 342 346 346 b 305 387 346 367 324 386 b 290 380 299 387 294 385 l 126 180 b 107 373 115 259 108 323 b 106 386 107 378 107 382 b 56 409 106 401 83 409 b 12 401 40 408 25 406 b -9 353 -14 392 -9 372 b 39 74 -9 252 7 159 l -62 -50 b -66 -60 -65 -53 -66 -56 b -24 -97 -64 -78 -43 -96 z "},"y":{"ha":658,"x_min":0,"x_max":0,"o":"m 258 -428 b 463 -62 380 -423 448 -301 b 605 48 512 -30 559 7 b 716 198 650 90 688 139 b 720 212 719 203 720 208 b 684 242 720 231 703 242 b 658 227 672 242 663 237 b 467 20 621 151 557 82 b 469 93 468 45 469 69 b 466 269 469 162 468 221 b 465 345 465 298 465 323 b 465 385 465 360 465 374 b 402 426 465 410 433 426 b 368 418 390 426 378 423 b 332 341 347 407 343 384 b 295 214 322 304 310 261 b 242 88 279 165 262 124 b 174 31 222 52 199 33 b 126 153 142 32 126 73 b 132 260 126 188 128 223 b 141 337 137 307 140 332 b 64 385 141 370 106 385 b 11 354 39 385 16 375 b -1 202 4 313 0 262 b 29 39 -1 134 9 80 b 149 -37 53 -12 93 -37 b 241 -4 184 -37 215 -26 b 351 192 292 41 326 114 b 354 45 353 145 354 96 b 353 -55 354 12 353 -22 b 253 -127 316 -78 283 -102 b 153 -313 193 -176 153 -233 b 180 -393 153 -343 162 -370 b 258 -428 197 -415 223 -427 z m 258 -362 b 222 -315 236 -361 222 -340 b 348 -138 222 -244 274 -190 b 339 -222 347 -159 344 -188 b 313 -317 334 -257 325 -289 b 258 -362 300 -345 282 -360 z "},"z":{"ha":474,"x_min":0,"x_max":0,"o":"m 81 -428 b 322 -104 231 -428 322 -249 b 315 -40 322 -82 320 -60 b 533 199 418 31 490 111 b 536 212 535 203 536 208 b 500 242 536 231 519 242 b 474 227 488 242 479 237 b 292 22 437 151 376 83 b 171 95 267 66 227 90 b 264 180 211 115 242 144 b 296 288 286 216 296 252 b 147 431 296 385 222 431 b -9 276 67 431 -9 377 b 32 178 -9 237 5 204 b 49 170 37 173 43 170 b 82 209 67 171 82 191 b 75 227 82 216 79 222 b 57 275 63 241 57 256 b 83 341 58 304 66 326 b 136 364 99 357 117 364 b 199 294 169 364 199 342 b 165 192 199 262 188 229 b 68 106 143 155 111 127 b 53 79 58 101 53 92 b 81 43 53 60 64 43 b 200 -39 140 43 180 16 l 177 -54 b 23 -166 117 -90 65 -127 b -43 -304 -20 -204 -41 -250 b -7 -393 -43 -340 -31 -370 b 81 -428 16 -416 45 -428 z m 73 -357 b 25 -303 45 -357 25 -336 b 213 -109 25 -231 109 -174 l 213 -113 b 180 -262 213 -161 202 -211 b 73 -357 153 -325 117 -357 z "},"{":{"ha":580,"x_min":0,"x_max":0,"o":"m 857 -381 b 878 -349 871 -381 878 -366 b 857 -315 878 -332 871 -315 l 575 -315 b 444 -236 503 -315 459 -288 b 435 -161 437 -214 435 -189 b 442 -45 435 -131 437 -92 b 451 111 448 6 451 58 l 451 162 b 416 286 450 193 439 233 b 292 420 393 337 352 382 b 467 726 414 495 463 593 b 480 1013 472 838 476 933 b 646 1155 488 1154 546 1155 l 857 1155 b 878 1188 871 1155 878 1171 b 857 1221 878 1205 871 1221 l 646 1221 b 438 1196 562 1221 490 1220 b 352 1015 383 1169 355 1109 l 344 730 b 267 532 342 639 316 573 b 58 460 218 490 148 467 b 34 419 42 458 34 440 b 58 380 34 400 41 382 b 270 304 159 370 229 345 b 338 153 311 262 333 212 b 340 86 340 130 340 109 b 333 -32 340 47 338 8 b 326 -166 328 -77 326 -122 b 347 -275 326 -206 333 -242 b 576 -381 373 -340 439 -381 z "},"|":{"ha":224,"x_min":0,"x_max":0,"o":"m 83 -381 b 146 -340 113 -381 146 -366 b 142 -159 143 -296 142 -235 b 177 964 142 113 153 488 b 191 1184 183 1095 188 1168 b 165 1211 190 1196 181 1204 b 114 1221 149 1218 132 1221 b 59 1193 82 1221 64 1212 b 50 972 56 1176 53 1103 b 34 0 39 626 34 302 b 42 -353 34 -160 37 -277 b 83 -381 44 -372 58 -381 z "},"}":{"ha":580,"x_min":0,"x_max":0,"o":"m -277 1221 b -298 1189 -291 1221 -298 1206 b -277 1155 -298 1172 -291 1155 l 5 1155 b 136 1076 77 1155 121 1128 b 145 1002 142 1054 145 1029 b 138 885 145 971 142 932 b 129 730 132 834 129 783 b 130 678 129 726 129 709 b 164 555 130 648 141 607 b 288 420 186 503 228 458 b 113 115 166 345 117 248 b 100 -172 108 3 104 -93 b -66 -315 92 -313 34 -315 l -277 -315 b -298 -348 -291 -315 -298 -331 b -277 -381 -298 -365 -291 -381 l -66 -381 b 142 -355 18 -381 90 -380 b 229 -174 197 -329 225 -269 b 236 111 231 -79 234 16 b 313 309 238 201 264 267 b 522 380 362 350 432 374 b 546 421 538 382 546 400 b 522 460 546 440 538 458 b 310 537 421 470 351 496 b 242 688 269 578 247 629 b 239 754 240 710 239 732 b 247 872 239 793 242 832 b 254 1006 252 918 254 962 b 234 1115 254 1046 247 1082 b 4 1221 207 1180 140 1221 z "},"~":{"ha":608,"x_min":0,"x_max":0,"o":"m 72 288 b 113 320 90 288 112 303 b 111 328 113 323 112 326 b 99 373 103 344 99 359 b 166 437 99 411 125 437 b 262 380 197 437 227 411 b 435 292 306 339 361 292 b 557 374 492 292 533 319 b 574 454 568 398 574 425 b 553 543 574 486 567 515 b 536 553 548 549 543 553 b 495 520 517 553 496 537 b 496 512 495 517 496 515 b 509 467 505 496 509 481 b 441 403 509 429 482 403 b 346 460 410 403 379 428 b 172 548 300 501 245 548 b 34 387 83 548 34 469 b 55 297 34 357 41 326 b 72 288 59 291 64 288 z "},"¡":{"ha":224,"x_min":0,"x_max":0,"o":"m 138 416 b 96 404 123 416 109 412 b 75 373 82 396 75 386 b 80 252 79 334 80 293 b 59 -94 79 125 72 10 b 31 -286 50 -165 41 -229 b 107 -323 33 -308 69 -323 b 163 -294 140 -323 158 -313 b 179 -121 168 -273 173 -216 b 188 175 185 -34 188 65 b 180 386 188 249 185 319 b 138 416 178 406 164 416 z m 123 650 b 58 621 98 650 76 640 b 32 553 41 602 32 579 b 58 484 32 526 41 503 b 123 456 76 465 98 456 b 188 484 148 456 170 465 b 214 553 205 503 214 526 b 188 621 214 579 205 602 b 123 650 170 640 148 650 z "},"¢":{"ha":677,"x_min":0,"x_max":0,"o":"m 172 -220 b 190 -210 180 -220 186 -216 l 219 -106 b 263 -109 233 -108 248 -109 b 492 -9 345 -109 421 -76 b 640 199 551 46 601 115 b 643 212 642 203 643 208 b 606 242 642 231 625 241 b 580 227 595 242 586 237 b 508 111 563 190 538 151 b 401 5 477 70 441 35 b 270 -42 358 -26 314 -42 b 238 -38 258 -42 248 -41 l 340 323 b 370 302 349 315 359 302 b 409 339 389 302 409 321 b 404 353 409 344 407 348 b 359 391 390 368 375 381 l 393 512 b 347 536 393 525 369 536 b 329 526 338 536 332 532 l 298 419 b 254 425 284 423 269 425 b 133 385 206 425 165 412 b 34 153 68 333 34 243 b 64 16 34 105 44 59 b 157 -84 85 -28 115 -61 l 125 -195 b 172 -220 127 -210 149 -220 z m 182 5 b 148 138 159 39 148 83 b 163 242 148 174 153 208 b 267 358 182 309 219 358 b 281 357 272 358 276 357 z "},"£":{"ha":697,"x_min":0,"x_max":0,"o":"m 507 270 b 528 303 520 270 528 286 b 507 336 528 320 520 336 l 354 336 b 328 405 350 360 341 383 b 262 490 309 433 287 462 b 194 579 237 518 214 548 b 163 682 174 610 163 645 b 373 905 164 830 264 905 b 497 869 416 905 457 893 b 591 758 536 844 568 808 b 610 747 595 751 602 747 b 652 777 629 747 652 760 b 651 785 652 779 652 782 b 526 926 621 848 580 896 b 356 972 473 957 416 972 b 202 939 301 972 250 961 b 39 673 107 892 42 803 b 79 522 40 614 54 564 b 160 410 104 479 131 441 b 205 351 178 389 193 370 b 214 336 209 347 212 341 l 62 336 b 41 304 49 336 41 320 b 62 270 41 288 48 270 l 219 270 b 186 192 213 249 202 223 b 104 47 161 142 134 94 b 37 -58 75 0 53 -35 b 34 -68 35 -61 34 -64 b 51 -111 34 -83 39 -97 b 96 -133 62 -125 77 -133 l 642 -133 b 663 -100 656 -133 663 -117 b 642 -66 663 -83 656 -66 l 181 -66 b 235 31 195 -39 213 -7 b 316 179 264 79 291 128 b 350 270 332 212 344 242 z "},"¤":{"ha":541,"x_min":0,"x_max":0,"o":"m 463 64 b 507 98 480 64 507 79 b 425 241 507 100 479 148 b 473 421 456 294 472 354 b 426 600 473 488 457 547 b 507 743 479 692 507 740 b 463 776 505 761 481 776 b 447 767 455 776 450 773 l 380 651 b 271 688 351 675 314 688 b 161 650 228 688 191 675 l 94 767 b 77 776 90 773 84 776 b 34 742 60 776 36 761 b 115 598 34 740 61 692 b 68 417 84 546 68 486 b 115 241 68 351 84 292 b 34 98 61 148 34 100 b 79 64 34 79 59 64 b 94 73 85 64 90 67 l 161 189 b 270 152 191 164 227 152 b 379 189 313 152 350 164 l 447 73 b 463 64 451 67 456 64 z m 267 224 b 201 284 235 226 214 246 b 182 408 188 321 182 363 b 211 572 182 470 191 525 b 279 636 227 613 250 634 b 342 572 307 634 328 613 b 363 430 356 531 363 484 b 340 288 363 376 355 329 b 267 224 324 248 300 226 z "},"¥":{"ha":789,"x_min":0,"x_max":0,"o":"m 93 416 b 72 383 79 416 72 399 b 93 349 72 367 79 349 l 252 349 b 269 315 257 338 262 326 b 268 296 269 309 269 302 l 93 296 b 72 264 79 296 72 281 b 93 231 72 248 79 231 l 267 231 l 267 187 b 276 -104 267 73 270 -24 b 317 -133 279 -123 292 -133 b 380 -91 347 -133 380 -118 b 376 71 378 -43 376 11 b 379 231 376 120 377 173 l 537 231 b 558 263 551 231 558 246 b 537 296 558 280 551 296 l 382 296 b 383 335 382 309 382 322 b 392 349 386 340 389 345 l 537 349 b 558 382 551 349 558 366 b 537 416 558 399 551 416 l 432 416 b 746 906 533 582 637 745 b 755 926 749 912 755 918 b 735 958 755 937 748 947 b 698 972 722 968 709 972 b 682 965 691 972 686 970 b 356 435 583 818 474 641 b 227 749 305 547 262 652 b 160 954 191 847 168 915 b 123 972 157 966 145 972 b 64 958 104 972 85 968 b 34 920 44 947 34 935 b 35 915 34 918 34 916 b 133 609 56 814 89 713 b 219 416 161 542 190 477 z "},"¦":{"ha":260,"x_min":0,"x_max":0,"o":"m 119 471 b 182 489 149 471 182 478 b 177 567 178 509 177 534 b 212 1050 177 684 189 845 b 226 1144 218 1106 223 1138 b 201 1156 225 1149 216 1153 b 149 1160 184 1159 168 1160 b 94 1148 117 1160 99 1156 b 85 1053 92 1141 88 1109 b 69 635 75 905 69 765 b 77 484 69 566 72 515 b 119 471 79 475 93 471 z m 83 -284 b 146 -267 113 -284 146 -277 b 142 -189 143 -247 142 -221 b 177 294 142 -71 153 90 b 191 389 183 351 188 382 b 165 401 190 393 181 397 b 114 405 149 404 132 405 b 59 393 82 405 64 401 b 50 298 56 385 53 354 b 34 -120 39 149 34 9 b 42 -272 34 -189 37 -240 b 83 -284 44 -280 58 -284 z "},"§":{"ha":893,"x_min":0,"x_max":0,"o":"m 640 -33 b 547 116 624 24 593 75 b 400 230 502 157 452 195 b 263 336 347 264 302 300 b 200 460 224 372 203 413 l 200 463 b 304 625 200 542 241 598 b 397 506 325 581 355 541 b 528 405 437 470 481 437 b 672 291 583 368 631 330 b 736 158 712 252 734 208 b 640 -33 735 69 703 5 z m 333 -397 b 479 -366 385 -397 433 -387 b 647 -117 572 -323 637 -239 b 796 -19 707 -100 756 -67 b 859 168 836 29 857 91 b 823 303 859 219 846 264 b 611 495 774 381 692 440 b 475 600 559 529 513 564 b 412 726 436 636 416 678 b 470 861 412 785 431 829 b 602 907 509 892 553 907 b 748 863 659 907 707 892 b 759 859 751 861 755 859 b 796 899 777 860 796 882 b 789 914 796 905 793 910 b 600 972 736 953 673 972 b 286 711 446 972 286 878 l 287 694 b 75 446 171 662 75 576 b 151 273 75 385 100 328 b 316 140 186 237 241 192 b 460 26 371 103 419 65 b 524 -107 500 -13 522 -58 b 494 -231 524 -157 513 -197 b 314 -330 454 -296 385 -330 b 190 -294 271 -330 230 -318 b 96 -182 150 -269 119 -232 b 76 -172 92 -176 85 -172 b 34 -201 58 -172 34 -184 b 36 -210 34 -204 35 -207 b 161 -351 65 -273 107 -321 b 333 -397 214 -382 272 -397 z "},"¨":{"ha":461,"x_min":0,"x_max":0,"o":"m 125 444 b 190 473 150 444 172 454 b 216 541 208 491 216 514 b 190 610 216 568 208 591 b 125 637 172 628 150 637 b 60 610 100 637 78 628 b 34 541 43 591 34 568 b 60 473 34 514 43 491 b 125 444 78 454 100 444 z m 336 444 b 401 473 361 444 383 454 b 427 541 418 491 427 514 b 401 610 427 568 418 591 b 336 637 383 628 361 637 b 272 610 311 637 290 628 b 245 541 254 591 245 568 b 272 473 245 514 254 491 b 336 444 290 454 311 444 z "},"©":{"ha":1028,"x_min":0,"x_max":0,"o":"m 514 -133 b 859 40 667 -133 782 -65 b 974 419 935 145 974 280 b 859 800 974 559 935 694 b 514 972 783 905 668 972 b 170 800 361 972 245 905 b 54 420 93 694 54 558 b 170 40 54 281 93 145 b 514 -133 245 -65 361 -133 z m 547 34 b 732 240 643 34 704 102 b 701 267 732 260 715 267 b 677 250 688 267 680 261 b 656 182 673 229 666 207 b 557 89 633 122 600 91 b 469 138 522 90 493 106 b 416 263 446 170 428 212 b 398 423 404 314 398 368 b 437 649 398 511 411 587 b 555 751 466 718 505 751 b 619 726 582 751 603 743 b 675 598 646 699 665 656 b 699 583 678 588 686 583 b 730 610 711 583 730 590 b 543 806 702 741 640 806 b 436 774 503 806 467 795 b 312 562 376 730 334 660 b 296 414 302 517 296 467 b 358 155 296 313 317 226 b 547 34 404 74 467 34 z m 514 -80 b 209 77 378 -80 277 -18 b 106 419 141 172 107 294 b 208 764 106 546 140 668 b 514 920 276 859 378 920 b 819 765 650 920 751 859 b 922 423 887 670 922 547 b 820 78 922 298 888 173 b 514 -80 752 -18 650 -80 z "},"ª":{"ha":415,"x_min":0,"x_max":0,"o":"m 79 833 b 60 870 66 833 60 848 b 81 950 60 897 66 924 b 140 994 96 979 117 994 b 210 948 162 994 185 979 b 150 882 192 926 172 903 b 79 833 118 850 94 833 z m 302 750 b 447 863 354 750 403 788 b 477 923 467 898 477 918 b 454 941 477 934 465 941 b 436 932 445 941 439 938 b 389 851 421 903 406 876 b 320 795 362 814 340 795 b 289 870 299 795 289 820 b 297 966 289 894 292 926 b 300 998 299 983 300 994 b 256 1023 300 1015 278 1023 b 214 1004 236 1023 218 1017 b 134 1035 193 1024 167 1034 b -9 888 37 1034 -9 957 b 67 795 -9 837 16 796 b 210 884 110 798 157 827 b 302 750 214 795 244 750 z m 465 625 b 478 656 473 625 478 640 b 465 688 478 673 473 688 l 3 688 b -9 657 -5 688 -9 673 b 3 625 -9 642 -5 625 z "},"«":{"ha":510,"x_min":0,"x_max":0,"o":"m 230 216 b 269 256 247 216 269 237 b 264 268 269 260 268 264 l 112 420 l 264 572 b 269 585 268 576 269 580 b 229 624 269 602 248 624 b 218 619 224 624 221 623 l 44 446 b 34 420 37 438 34 430 b 44 394 34 410 37 401 l 218 221 b 230 216 221 218 225 216 z m 437 216 b 476 256 454 216 475 237 b 471 268 476 260 475 264 l 319 420 l 471 572 b 476 585 475 576 476 580 b 436 624 476 602 454 624 b 425 619 431 624 428 623 l 251 446 b 241 420 244 438 241 430 b 251 394 241 410 244 401 l 425 221 b 437 216 428 218 432 216 z "},"¬":{"ha":476,"x_min":0,"x_max":0,"o":"m 408 269 b 442 290 425 269 442 276 l 442 538 b 421 572 442 555 435 572 l 55 572 b 34 539 41 572 34 555 b 55 505 34 522 41 505 l 376 505 l 376 290 b 408 269 376 276 392 269 z "},"®":{"ha":1027,"x_min":0,"x_max":0,"o":"m 513 -133 b 859 40 667 -133 782 -65 b 973 419 935 145 973 280 b 859 800 973 559 935 694 b 513 972 782 905 667 972 b 169 800 361 972 245 905 b 54 420 92 694 54 558 b 169 40 54 281 92 145 b 513 -133 245 -65 361 -133 z m 686 34 b 764 65 713 34 745 45 b 770 79 768 69 770 74 b 737 111 768 95 753 111 b 724 104 732 111 728 109 b 693 92 715 96 705 92 b 624 203 655 92 640 143 b 560 340 610 255 593 309 b 679 435 612 361 652 393 b 719 569 705 477 719 522 b 689 683 719 609 709 647 b 447 806 649 755 569 806 b 331 783 406 806 368 798 b 205 601 257 751 205 688 b 273 459 205 537 240 497 b 331 355 302 427 326 396 l 330 245 b 336 58 330 174 332 111 b 370 34 338 42 349 34 b 401 42 379 34 390 37 b 418 68 413 47 418 56 b 415 168 416 102 415 134 b 418 323 415 219 416 271 b 454 321 430 321 442 321 l 464 321 b 518 276 488 315 507 300 b 547 193 530 252 540 224 b 572 117 554 166 562 141 b 686 34 591 69 624 34 z m 488 372 b 452 375 476 374 464 375 b 420 373 441 375 431 374 b 439 673 425 473 431 573 b 420 699 439 684 433 693 b 386 705 410 703 398 705 b 340 673 358 705 342 694 b 333 466 337 604 335 534 b 281 532 309 494 291 515 b 261 597 269 550 262 572 b 317 710 263 646 281 684 b 440 751 353 736 394 750 b 587 694 507 749 555 730 b 634 570 618 659 634 617 b 597 447 634 525 622 484 b 488 372 572 410 535 385 z m 513 -80 b 106 419 242 -80 106 171 b 208 764 106 546 140 668 b 513 920 276 859 378 920 b 819 765 649 920 751 859 b 921 423 887 670 921 547 b 513 -80 921 173 787 -80 z "},"¯":{"ha":555,"x_min":0,"x_max":0,"o":"m 479 761 b 501 793 494 761 501 777 b 479 827 501 810 494 827 l 76 827 b 54 794 62 827 54 811 b 76 761 54 778 62 761 z "},"°":{"ha":473,"x_min":0,"x_max":0,"o":"m 237 490 b 350 526 282 490 319 503 b 439 734 410 574 439 652 b 417 848 439 774 432 812 b 238 972 387 922 328 972 b 125 937 193 972 155 961 b 34 729 64 890 34 810 b 56 614 34 689 41 650 b 237 490 86 541 147 490 z m 234 562 b 170 610 205 564 184 580 b 149 724 155 641 149 679 b 192 889 149 793 163 848 b 245 921 206 910 224 920 b 309 862 273 919 295 899 b 330 742 323 824 330 784 b 307 621 330 698 322 657 b 234 562 290 583 266 564 z "},"±":{"ha":648,"x_min":0,"x_max":0,"o":"m 323 151 b 357 172 340 151 357 157 l 357 387 l 572 387 b 594 420 587 387 594 403 b 572 453 594 437 587 453 l 357 453 l 357 669 b 324 690 357 682 341 690 b 291 669 307 690 291 682 l 291 453 l 76 453 b 54 420 62 453 54 437 b 76 387 54 404 62 387 l 291 387 l 291 172 b 323 151 291 158 307 151 z m 572 0 b 594 33 587 0 594 16 b 572 66 594 50 587 66 l 76 66 b 54 34 62 66 54 50 b 76 0 54 17 62 0 z "},"²":{"ha":434,"x_min":0,"x_max":0,"o":"m 387 279 b 400 300 395 279 400 286 b 387 321 400 314 395 321 l 121 321 b 247 464 162 363 204 410 b 353 631 289 517 324 573 b 398 802 382 689 397 746 b 224 972 398 912 311 972 b 35 826 150 972 73 926 l 34 823 b 65 802 35 811 52 802 b 77 808 71 802 75 804 b 221 928 109 890 168 928 b 322 817 275 928 322 890 b 227 547 322 737 290 648 b 43 319 174 463 113 387 b 35 300 38 316 35 310 b 49 279 35 286 40 279 z "},"³":{"ha":482,"x_min":0,"x_max":0,"o":"m 223 279 b 347 312 272 280 313 291 b 448 490 414 353 448 422 b 313 652 448 564 405 633 b 416 821 383 696 416 759 b 251 972 416 905 359 972 b 56 826 174 972 93 926 l 56 823 b 87 802 56 811 74 802 b 99 808 93 802 97 804 b 164 899 115 848 136 879 b 246 928 192 918 219 928 b 342 840 310 928 342 889 b 167 644 342 768 281 677 b 160 630 162 644 160 639 b 175 604 160 617 165 604 b 235 612 197 609 218 612 b 334 570 279 610 313 597 b 366 477 355 544 366 513 b 328 370 366 435 353 400 b 216 321 300 337 262 321 b 73 413 158 321 102 350 b 60 420 71 418 66 420 b 34 401 49 420 34 412 b 35 396 34 399 35 398 b 223 279 73 317 144 279 z "},"´":{"ha":286,"x_min":0,"x_max":0,"o":"m 73 435 b 83 438 77 435 80 436 l 242 547 b 252 567 249 552 252 559 b 227 618 252 583 244 600 b 180 646 210 637 194 646 b 163 639 173 646 168 644 l 40 492 b 34 475 36 486 34 481 b 73 435 34 455 55 436 z "},"µ":{"ha":693,"x_min":0,"x_max":0,"o":"m 48 -374 b 111 -333 78 -374 111 -359 b 106 -152 108 -289 106 -229 l 107 -32 b 149 -37 120 -35 134 -37 b 351 142 232 -37 299 22 b 490 -76 357 -3 404 -76 b 652 24 549 -76 603 -43 b 752 199 686 68 719 126 b 755 212 754 203 755 208 b 720 242 755 231 736 242 b 693 227 707 242 698 237 b 621 93 671 178 646 133 b 517 -1 581 30 547 -1 b 470 121 480 -1 470 54 b 482 282 472 180 476 233 b 488 338 486 311 488 330 b 420 378 488 365 454 378 b 358 350 391 378 366 369 b 313 219 341 298 326 254 b 174 31 269 98 222 35 b 127 159 142 33 127 75 b 140 332 127 210 132 268 b 142 341 141 335 142 338 b 119 374 142 355 134 366 b 70 385 103 381 87 385 b 31 378 56 385 43 382 b -1 222 12 369 1 317 l -1 7 b 7 -346 -1 -153 1 -271 b 48 -374 9 -365 22 -374 z "},"¶":{"ha":870,"x_min":0,"x_max":0,"o":"m 638 -133 b 681 -122 652 -133 667 -130 b 701 -91 694 -115 701 -104 b 696 65 698 -45 696 6 b 703 300 696 120 699 198 b 721 642 706 403 712 517 b 741 907 730 768 736 856 l 814 907 b 836 941 829 907 836 924 b 814 972 836 957 829 972 l 372 972 b 195 927 304 972 245 958 b 34 622 93 866 34 755 b 62 475 34 571 43 522 b 290 280 100 379 176 305 l 290 185 b 298 -104 290 71 292 -25 b 340 -133 300 -123 315 -133 b 382 -122 354 -133 368 -130 b 402 -91 395 -115 402 -104 b 398 66 399 -45 398 7 b 404 300 398 120 400 198 b 422 642 407 403 413 517 b 443 907 431 768 437 856 l 610 907 b 597 629 606 848 602 755 b 589 182 591 473 589 324 b 597 -104 589 68 591 -27 b 638 -133 599 -123 612 -133 z "},"·":{"ha":223,"x_min":0,"x_max":0,"o":"m 112 404 b 167 429 133 404 151 412 b 189 486 182 444 189 464 b 167 545 189 509 182 528 b 112 568 151 560 133 568 b 57 545 91 568 73 560 b 34 486 41 528 34 509 b 57 429 34 464 41 444 b 112 404 73 412 91 404 z "},"∙":{"ha":223,"x_min":0,"x_max":0,"o":"m 112 404 b 167 429 133 404 151 412 b 189 486 182 444 189 464 b 167 545 189 509 182 528 b 112 568 151 560 133 568 b 57 545 91 568 73 560 b 34 486 41 528 34 509 b 57 429 34 464 41 444 b 112 404 73 412 91 404 z "},"¸":{"ha":262,"x_min":0,"x_max":0,"o":"m 62 -422 b 187 -357 117 -410 159 -389 b 229 -260 215 -325 229 -292 b 127 -170 229 -212 195 -170 l 119 -171 l 130 -105 b 87 -84 130 -92 107 -84 b 64 -96 73 -84 65 -88 l 45 -206 b 85 -243 47 -225 67 -243 l 92 -242 b 129 -236 106 -238 119 -236 b 163 -262 152 -237 163 -246 b 133 -316 163 -279 153 -296 b 50 -357 113 -336 85 -349 b 34 -385 39 -359 34 -369 b 58 -422 34 -403 43 -422 z "},"¹":{"ha":315,"x_min":0,"x_max":0,"o":"m 268 279 b 281 300 277 279 281 286 b 268 321 281 314 277 321 l 195 321 b 193 403 194 345 193 372 b 214 841 193 521 200 667 b 223 949 216 872 219 908 b 176 972 223 963 198 972 b 143 960 160 972 149 968 b 56 825 85 872 56 827 b 82 802 56 813 72 802 b 92 807 86 802 90 804 l 136 873 b 125 492 129 741 125 613 b 129 321 125 418 127 361 l 47 321 b 34 300 39 321 34 311 b 47 279 34 290 39 279 z "},"º":{"ha":475,"x_min":0,"x_max":0,"o":"m 238 279 b 391 391 302 279 353 317 b 441 635 425 459 441 541 b 393 868 441 726 425 804 b 246 972 357 938 308 972 b 87 861 179 972 126 935 b 34 618 52 793 34 712 b 85 385 34 526 51 449 b 238 279 122 315 173 279 z m 252 320 b 151 410 209 320 175 350 b 117 612 128 465 117 533 b 153 831 117 697 129 770 b 261 932 179 899 216 932 b 363 842 304 932 338 902 b 397 641 385 787 397 720 b 361 421 397 556 385 483 b 252 320 334 354 298 320 z "},"»":{"ha":510,"x_min":0,"x_max":0,"o":"m 73 216 b 86 221 78 216 82 218 l 259 394 b 269 420 266 401 269 410 b 259 446 269 430 266 438 l 86 619 b 74 624 83 623 79 624 b 34 585 56 624 34 602 b 39 572 34 580 36 576 l 191 420 l 39 268 b 34 256 36 264 34 260 b 73 216 36 237 56 216 z m 280 216 b 293 221 285 216 289 218 l 466 394 b 476 420 473 401 476 410 b 466 446 476 430 473 438 l 293 619 b 281 624 290 623 286 624 b 241 585 262 624 241 602 b 245 572 241 580 242 576 l 398 420 l 245 268 b 241 256 242 264 241 260 b 280 216 243 237 263 216 z "},"¼":{"ha":872,"x_min":0,"x_max":0,"o":"m 268 279 b 281 300 277 279 281 286 b 268 321 281 314 277 321 l 195 321 b 193 403 194 345 193 372 b 214 841 193 521 200 667 b 223 949 216 872 219 908 b 176 972 223 963 198 972 b 143 960 160 972 149 968 b 56 825 85 872 56 827 b 82 802 56 813 72 802 b 92 807 86 802 90 804 l 136 873 b 125 492 129 741 125 613 b 129 321 125 418 127 361 l 47 321 b 34 300 39 321 34 311 b 47 279 34 290 39 279 z m 194 -133 b 220 -119 207 -133 216 -128 b 361 216 240 -62 287 50 b 587 686 435 380 510 537 b 713 925 664 834 706 913 b 715 932 715 927 715 930 b 696 959 715 941 709 949 b 658 972 682 968 669 972 b 641 964 650 972 645 970 b 517 720 633 952 592 871 b 296 241 441 568 368 409 b 157 -101 223 73 177 -41 b 155 -108 156 -103 155 -106 b 194 -133 156 -123 175 -133 z m 731 -133 b 771 -106 749 -133 771 -123 b 768 -5 769 -77 768 -44 b 770 101 768 26 769 62 l 828 101 b 838 121 835 101 838 108 b 827 142 838 136 834 142 l 772 142 b 787 401 776 237 781 323 b 798 537 792 478 796 524 b 751 560 798 551 773 560 b 717 542 730 560 719 554 b 708 405 714 529 711 484 b 701 142 705 326 702 238 l 488 142 b 663 525 604 395 663 522 b 616 560 663 542 637 560 b 597 551 608 560 602 557 b 530 412 590 540 568 493 b 410 145 493 332 453 242 b 408 135 409 142 408 138 b 433 101 408 118 419 101 l 701 101 l 700 58 b 705 -115 700 -10 702 -68 b 731 -133 706 -127 715 -133 z "},"½":{"ha":902,"x_min":0,"x_max":0,"o":"m 854 -133 b 868 -112 863 -133 868 -126 b 854 -92 868 -98 863 -92 l 589 -92 b 715 52 630 -50 672 -2 b 821 219 757 105 792 161 b 866 390 850 277 865 334 b 692 560 866 500 779 560 b 503 414 618 560 541 514 l 502 410 b 533 390 503 399 520 390 b 545 396 539 390 543 392 b 689 516 577 477 635 516 b 790 404 743 516 790 478 b 694 134 790 325 758 235 b 511 -93 642 51 581 -25 b 503 -112 506 -96 503 -102 b 517 -133 503 -126 508 -133 z m 268 279 b 281 300 277 279 281 286 b 268 321 281 314 277 321 l 195 321 b 193 403 194 345 193 372 b 214 841 193 521 200 667 b 223 949 216 872 219 908 b 176 972 223 963 198 972 b 143 960 160 972 149 968 b 56 825 85 872 56 827 b 82 802 56 813 72 802 b 92 807 86 802 90 804 l 136 873 b 125 492 129 741 125 613 b 129 321 125 418 127 361 l 47 321 b 34 300 39 321 34 311 b 47 279 34 290 39 279 z m 194 -133 b 220 -119 207 -133 216 -128 b 361 216 240 -62 287 50 b 587 686 435 380 510 537 b 713 925 664 834 706 913 b 715 932 715 927 715 930 b 696 959 715 941 709 949 b 658 972 682 968 669 972 b 641 964 650 972 645 970 b 517 720 633 952 592 871 b 296 241 441 568 368 409 b 157 -101 223 73 177 -41 b 155 -108 156 -103 155 -106 b 194 -133 156 -123 175 -133 z "},"¾":{"ha":980,"x_min":0,"x_max":0,"o":"m 223 279 b 347 312 272 280 313 291 b 448 490 414 353 448 422 b 313 652 448 564 405 633 b 416 821 383 696 416 759 b 251 972 416 905 359 972 b 56 826 174 972 93 926 l 56 823 b 87 802 56 811 74 802 b 99 808 93 802 97 804 b 164 899 115 848 136 879 b 246 928 192 918 219 928 b 342 840 310 928 342 889 b 167 644 342 768 281 677 b 160 630 162 644 160 639 b 175 604 160 617 165 604 b 235 612 197 609 218 612 b 334 570 279 610 313 597 b 366 477 355 544 366 513 b 328 370 366 435 353 400 b 216 321 300 337 262 321 b 73 413 158 321 102 350 b 60 420 71 418 66 420 b 34 401 49 420 34 412 b 35 396 34 399 35 398 b 223 279 73 317 144 279 z m 302 -133 b 328 -119 315 -133 323 -128 b 469 216 348 -62 395 50 b 695 686 543 380 618 537 b 821 925 772 834 814 913 b 823 932 823 927 823 930 b 804 959 823 941 817 949 b 766 972 790 968 777 972 b 749 964 758 972 753 970 b 625 720 741 952 700 871 b 404 241 549 568 475 409 b 264 -101 331 73 285 -41 b 263 -108 264 -103 263 -106 b 302 -133 264 -123 283 -133 z m 839 -133 b 879 -106 857 -133 879 -123 b 876 -5 877 -77 876 -44 b 878 101 876 26 877 62 l 936 101 b 946 121 943 101 946 108 b 935 142 946 136 942 142 l 880 142 b 895 401 884 237 888 323 b 906 537 900 478 904 524 b 859 560 905 551 881 560 b 825 542 838 560 827 554 b 816 405 822 529 819 484 b 808 142 812 326 810 238 l 595 142 b 770 525 712 395 770 522 b 724 560 770 542 745 560 b 705 551 716 560 710 557 b 638 412 698 540 675 493 b 518 145 601 332 561 242 b 516 135 517 142 516 138 b 541 101 516 118 527 101 l 808 101 l 808 58 b 813 -115 808 -10 810 -68 b 839 -133 814 -127 823 -133 z "},"¿":{"ha":642,"x_min":0,"x_max":0,"o":"m 304 -323 b 607 -90 423 -323 547 -250 l 608 -84 b 558 -52 606 -66 579 -52 b 538 -62 549 -52 542 -55 b 437 -205 513 -126 480 -174 b 310 -253 395 -237 353 -253 b 152 -95 200 -253 152 -180 b 288 153 152 4 218 79 b 425 351 345 212 398 274 b 427 361 427 354 427 357 b 363 401 425 386 396 401 b 324 379 344 401 331 393 b 185 187 297 303 243 244 b 34 -92 109 111 34 31 b 304 -323 34 -220 133 -323 z m 375 456 b 440 484 400 456 422 465 b 467 553 458 503 467 526 b 440 621 467 579 458 602 b 375 650 422 640 400 650 b 311 621 350 650 328 640 b 284 553 293 602 284 579 b 311 484 284 526 293 503 b 375 456 328 465 350 456 z "},"×":{"ha":475,"x_min":0,"x_max":0,"o":"m 401 216 b 441 257 420 216 441 238 b 437 268 441 261 440 264 l 285 420 l 437 572 b 441 585 440 576 441 580 b 402 624 441 602 419 624 b 390 619 397 624 393 623 l 238 467 l 85 619 b 73 624 82 623 78 624 b 34 585 55 623 34 602 b 39 572 34 580 35 576 l 191 420 l 39 268 b 34 256 35 264 34 260 b 74 216 35 237 55 217 b 85 221 79 216 82 218 l 238 373 l 390 221 b 401 216 393 218 397 216 z "},"÷":{"ha":648,"x_min":0,"x_max":0,"o":"m 572 387 b 594 420 587 387 594 403 b 572 453 594 437 587 453 l 76 453 b 54 420 62 453 54 437 b 76 387 54 404 62 387 z m 324 476 b 389 505 349 476 371 486 b 416 573 407 524 416 547 b 389 642 416 600 407 623 b 324 670 371 661 349 670 b 260 642 299 670 277 661 b 233 573 241 623 233 600 b 260 505 233 547 241 524 b 324 476 277 486 299 476 z m 324 170 b 389 198 349 170 371 179 b 416 267 407 217 416 240 b 389 335 416 293 407 316 b 324 363 371 354 349 363 b 260 335 299 363 277 354 b 233 267 241 316 233 293 b 260 198 233 240 241 217 b 324 170 277 179 299 170 z "},"ȷ":{"ha":296,"x_min":0,"x_max":0,"o":"m -100 -429 b 39 -334 -42 -429 4 -397 b 110 -56 76 -265 100 -172 b 248 52 158 -25 203 11 b 355 199 291 92 327 141 b 359 212 357 203 359 208 b 323 242 359 231 341 242 b 296 227 310 242 301 237 b 115 27 261 154 201 87 b 118 133 117 63 117 98 b 117 309 118 182 117 241 b 117 372 117 341 117 362 b 54 412 117 399 87 412 b -2 375 25 412 1 400 l -3 341 b -1 262 -3 320 -2 294 b 1 70 1 205 1 141 b -1 -49 1 30 0 -9 b -204 -310 -112 -117 -204 -187 b -100 -429 -204 -373 -171 -429 z m -102 -362 b -136 -316 -126 -362 -136 -338 b -7 -135 -134 -242 -83 -187 b -31 -271 -12 -183 -20 -228 b -102 -362 -48 -332 -72 -362 z "},"ʻ":{"ha":254,"x_min":0,"x_max":0,"o":"m 128 635 b 193 664 153 635 175 645 b 220 732 211 683 220 706 b 193 801 220 759 211 782 b 128 829 175 820 153 829 b 117 829 124 829 120 829 b 180 909 135 864 156 890 b 189 926 186 913 189 920 b 154 966 189 945 171 966 b 142 962 150 966 146 964 b 66 871 111 939 86 909 b 34 754 45 834 35 795 b 128 635 34 697 62 635 z "},"ʼ":{"ha":254,"x_min":0,"x_max":0,"o":"m 125 966 b 61 937 100 966 79 956 b 34 869 43 918 34 895 b 61 800 34 842 43 819 b 125 772 79 781 100 772 b 137 772 130 772 134 772 b 73 692 119 737 98 711 b 64 675 67 688 64 682 b 100 635 64 656 83 635 b 112 640 104 635 108 637 b 188 730 142 662 168 692 b 220 847 208 767 219 806 b 125 966 220 904 192 966 z "},"ˆ":{"ha":367,"x_min":0,"x_max":0,"o":"m 295 425 b 333 458 313 425 333 440 b 328 473 333 463 332 469 l 211 643 b 184 657 203 652 194 657 b 157 643 174 657 164 652 l 39 473 b 34 458 36 469 34 463 b 73 425 34 440 54 425 b 94 436 81 425 87 429 l 184 566 l 274 436 b 295 425 280 429 287 425 z "},"ˇ":{"ha":367,"x_min":0,"x_max":0,"o":"m 183 425 b 210 439 193 425 203 429 l 328 608 b 333 623 331 613 333 618 b 294 657 333 642 313 657 b 273 646 286 657 279 653 l 183 515 l 93 646 b 72 657 87 653 81 657 b 34 623 54 657 34 642 b 39 608 34 618 35 613 l 156 439 b 183 425 164 429 173 425 z "},"ˉ":{"ha":378,"x_min":0,"x_max":0,"o":"m 323 508 b 345 542 337 508 345 524 b 323 574 345 558 337 574 l 55 574 b 34 541 41 574 34 559 b 55 508 34 524 41 508 z "},"ˊ":{"ha":286,"x_min":0,"x_max":0,"o":"m 73 435 b 83 438 77 435 80 436 l 242 547 b 252 567 249 552 252 559 b 227 618 252 583 244 600 b 180 646 210 637 194 646 b 163 639 173 646 168 644 l 40 492 b 34 475 36 486 34 481 b 73 435 34 455 55 436 z "},"ˋ":{"ha":286,"x_min":0,"x_max":0,"o":"m 213 435 b 252 475 231 436 252 455 b 245 492 252 481 250 486 l 123 639 b 106 646 119 644 113 646 b 60 618 92 646 77 637 b 34 567 43 600 34 583 b 44 547 34 559 37 552 l 203 438 b 213 435 206 436 210 435 z "},"ˍ":{"ha":515,"x_min":0,"x_max":0,"o":"m 459 -186 b 481 -153 473 -186 481 -170 b 459 -120 481 -137 473 -120 l 56 -120 b 34 -153 41 -120 34 -136 b 56 -186 34 -170 41 -186 z "},"˘":{"ha":332,"x_min":0,"x_max":0,"o":"m 166 463 b 298 587 231 463 298 504 b 264 620 298 605 283 620 b 231 587 246 620 231 605 b 165 528 231 547 200 528 b 100 587 131 528 100 547 b 67 620 100 605 85 620 b 34 587 48 620 34 605 b 166 463 34 503 100 463 z "},"˙":{"ha":250,"x_min":0,"x_max":0,"o":"m 125 444 b 190 473 151 444 172 454 b 216 541 208 491 216 514 b 190 610 216 568 208 591 b 125 637 172 628 151 637 b 61 610 100 637 79 628 b 34 541 43 591 34 568 b 61 473 34 514 43 491 b 125 444 79 454 100 444 z "},"˚":{"ha":293,"x_min":0,"x_max":0,"o":"m 146 423 b 227 458 178 423 205 435 b 259 541 248 482 259 509 b 227 623 259 572 248 600 b 146 659 205 647 178 659 b 66 623 115 659 87 647 b 34 541 45 600 34 572 b 66 458 34 509 45 482 b 146 423 87 435 115 423 z m 146 490 b 100 541 119 490 100 514 b 146 592 100 568 119 592 b 193 541 174 592 193 568 b 146 490 193 514 174 490 z "},"˛":{"ha":254,"x_min":0,"x_max":0,"o":"m 143 -392 b 212 -378 164 -392 187 -387 b 220 -362 217 -376 220 -370 b 192 -316 219 -341 208 -316 l 188 -317 b 143 -326 170 -323 155 -326 b 99 -281 114 -326 99 -311 b 127 -201 99 -258 109 -231 b 201 -126 145 -171 170 -146 b 207 -113 205 -123 207 -119 b 179 -75 207 -98 192 -75 b 174 -77 177 -75 176 -76 b 34 -279 77 -138 34 -214 b 143 -392 34 -346 75 -392 z "},"˜":{"ha":403,"x_min":0,"x_max":0,"o":"m 67 457 b 100 479 84 457 99 465 l 100 483 b 130 557 100 498 104 557 b 273 458 168 557 195 458 b 330 482 296 458 315 467 b 369 604 357 514 369 563 b 336 625 369 618 353 625 b 303 604 319 625 303 618 b 301 575 303 597 302 588 b 273 525 298 550 291 525 b 130 623 235 525 207 623 b 73 600 106 623 87 616 b 34 483 45 569 34 522 b 67 457 34 466 45 457 z "},"˝":{"ha":505,"x_min":0,"x_max":0,"o":"m 73 435 b 83 438 77 435 80 436 l 242 547 b 252 567 249 552 252 559 b 227 618 252 583 244 600 b 180 646 210 637 194 646 b 163 639 173 646 168 644 l 40 492 b 34 475 36 486 34 481 b 73 435 34 455 55 436 z m 292 435 b 302 438 295 435 298 436 l 460 547 b 471 567 467 552 471 559 b 446 618 471 583 463 600 b 398 646 429 637 412 646 b 381 639 391 646 386 644 l 258 492 b 252 475 254 486 252 481 b 292 435 252 455 273 436 z "},"˷":{"ha":403,"x_min":0,"x_max":0,"o":"m 67 -186 b 100 -165 84 -186 99 -179 l 100 -161 b 130 -87 100 -145 104 -87 b 273 -185 168 -87 195 -185 b 330 -161 296 -185 315 -177 b 369 -40 357 -130 369 -81 b 336 -19 369 -26 353 -19 b 303 -39 319 -19 303 -26 b 301 -68 303 -46 302 -56 b 273 -119 298 -94 291 -119 b 130 -20 235 -119 207 -20 b 73 -44 106 -20 87 -28 b 34 -161 45 -75 34 -122 b 67 -186 34 -178 45 -186 z "},"̀":{"ha":286,"x_min":0,"x_max":0,"o":"m 213 435 b 252 475 231 436 252 455 b 245 492 252 481 250 486 l 123 639 b 106 646 119 644 113 646 b 60 618 92 646 77 637 b 34 567 43 600 34 583 b 44 547 34 559 37 552 l 203 438 b 213 435 206 436 210 435 z "},"́":{"ha":286,"x_min":0,"x_max":0,"o":"m 73 435 b 83 438 77 435 80 436 l 242 547 b 252 567 249 552 252 559 b 227 618 252 583 244 600 b 180 646 210 637 194 646 b 163 639 173 646 168 644 l 40 492 b 34 475 36 486 34 481 b 73 435 34 455 55 436 z "},"̂":{"ha":367,"x_min":0,"x_max":0,"o":"m 295 425 b 333 458 313 425 333 440 b 328 473 333 463 332 469 l 211 643 b 184 657 203 652 194 657 b 157 643 174 657 164 652 l 39 473 b 34 458 36 469 34 463 b 73 425 34 440 54 425 b 94 436 81 425 87 429 l 184 566 l 274 436 b 295 425 280 429 287 425 z "},"̃":{"ha":403,"x_min":0,"x_max":0,"o":"m 67 457 b 100 479 84 457 99 465 l 100 483 b 130 557 100 498 104 557 b 273 458 168 557 195 458 b 330 482 296 458 315 467 b 369 604 357 514 369 563 b 336 625 369 618 353 625 b 303 604 319 625 303 618 b 301 575 303 597 302 588 b 273 525 298 550 291 525 b 130 623 235 525 207 623 b 73 600 106 623 87 616 b 34 483 45 569 34 522 b 67 457 34 466 45 457 z "},"̄":{"ha":378,"x_min":0,"x_max":0,"o":"m 323 508 b 345 542 337 508 345 524 b 323 574 345 558 337 574 l 55 574 b 34 541 41 574 34 559 b 55 508 34 524 41 508 z "},"̅":{"ha":814,"x_min":0,"x_max":0,"o":"m 760 1097 b 781 1128 774 1097 781 1112 b 760 1160 781 1144 774 1160 l 54 1160 b 34 1129 41 1160 34 1145 b 54 1097 34 1113 41 1097 z "},"̆":{"ha":332,"x_min":0,"x_max":0,"o":"m 166 463 b 298 587 231 463 298 504 b 264 620 298 605 283 620 b 231 587 246 620 231 605 b 165 528 231 547 200 528 b 100 587 131 528 100 547 b 67 620 100 605 85 620 b 34 587 48 620 34 605 b 166 463 34 503 100 463 z "},"̇":{"ha":250,"x_min":0,"x_max":0,"o":"m 125 444 b 190 473 151 444 172 454 b 216 541 208 491 216 514 b 190 610 216 568 208 591 b 125 637 172 628 151 637 b 61 610 100 637 79 628 b 34 541 43 591 34 568 b 61 473 34 514 43 491 b 125 444 79 454 100 444 z "},"̈":{"ha":387,"x_min":0,"x_max":0,"o":"m 112 459 b 167 484 133 459 151 467 b 189 541 182 499 189 519 b 167 600 189 564 182 583 b 112 623 151 615 133 623 b 57 600 91 623 73 615 b 34 541 41 583 34 564 b 57 484 34 519 41 499 b 112 459 73 467 91 459 z m 276 459 b 331 484 297 459 315 467 b 353 541 346 499 353 519 b 331 600 353 564 346 583 b 276 623 315 615 297 623 b 221 600 255 623 237 615 b 198 541 205 583 198 564 b 221 484 198 519 205 499 b 276 459 237 467 255 459 z "},"̊":{"ha":293,"x_min":0,"x_max":0,"o":"m 146 423 b 227 458 178 423 205 435 b 259 541 248 482 259 509 b 227 623 259 572 248 600 b 146 659 205 647 178 659 b 66 623 115 659 87 647 b 34 541 45 600 34 572 b 66 458 34 509 45 482 b 146 423 87 435 115 423 z m 146 490 b 100 541 119 490 100 514 b 146 592 100 568 119 592 b 193 541 174 592 193 568 b 146 490 193 514 174 490 z "},"̌":{"ha":367,"x_min":0,"x_max":0,"o":"m 183 425 b 210 439 193 425 203 429 l 328 608 b 333 623 331 613 333 618 b 294 657 333 642 313 657 b 273 646 286 657 279 653 l 183 515 l 93 646 b 72 657 87 653 81 657 b 34 623 54 657 34 642 b 39 608 34 618 35 613 l 156 439 b 183 425 164 429 173 425 z "},"̐":{"ha":332,"x_min":0,"x_max":0,"o":"m 165 541 b 210 589 190 541 210 562 b 165 635 210 614 190 635 b 121 589 141 635 121 614 b 165 541 121 562 141 541 z m 166 448 b 298 572 231 448 298 490 b 264 606 298 591 283 606 b 231 572 246 606 231 591 b 165 513 231 532 200 513 b 100 572 131 513 100 532 b 67 606 100 591 85 606 b 34 572 48 606 34 591 b 166 448 34 489 100 448 z "},"̕":{"ha":254,"x_min":0,"x_max":0,"o":"m 125 1035 b 61 1006 100 1035 79 1025 b 34 938 43 987 34 964 b 61 869 34 911 43 888 b 125 841 79 850 100 841 b 137 842 130 841 134 841 b 73 762 119 806 98 780 b 64 744 67 757 64 751 b 100 705 64 726 83 705 b 112 709 104 705 108 706 b 188 799 142 731 168 762 b 220 916 208 836 219 876 b 125 1035 220 973 192 1035 z "},"̣":{"ha":223,"x_min":0,"x_max":0,"o":"m 112 -236 b 167 -212 133 -236 151 -228 b 189 -153 182 -196 189 -176 b 167 -96 189 -131 182 -111 b 112 -71 151 -79 133 -71 b 57 -96 91 -71 73 -79 b 34 -153 41 -111 34 -131 b 57 -212 34 -176 41 -196 b 112 -236 73 -228 91 -236 z "},"̤":{"ha":461,"x_min":0,"x_max":0,"o":"m 125 -250 b 190 -222 150 -250 172 -241 b 216 -153 208 -203 216 -180 b 190 -85 216 -127 208 -104 b 125 -56 172 -66 150 -56 b 60 -85 100 -56 78 -66 b 34 -153 43 -104 34 -127 b 60 -222 34 -180 43 -203 b 125 -250 78 -241 100 -250 z m 336 -250 b 401 -222 361 -250 383 -241 b 427 -153 418 -203 427 -180 b 401 -85 427 -127 418 -104 b 336 -56 383 -66 361 -56 b 272 -85 311 -56 290 -66 b 245 -153 254 -104 245 -127 b 272 -222 245 -180 254 -203 b 336 -250 290 -241 311 -250 z "},"̥":{"ha":293,"x_min":0,"x_max":0,"o":"m 146 -284 b 227 -249 178 -284 205 -273 b 259 -167 248 -225 259 -198 b 227 -84 259 -135 248 -108 b 146 -49 205 -60 178 -49 b 66 -84 115 -49 87 -60 b 34 -167 45 -108 34 -135 b 66 -249 34 -198 45 -225 b 146 -284 87 -273 115 -284 z m 146 -218 b 100 -167 119 -218 100 -193 b 146 -115 100 -140 119 -115 b 193 -167 174 -115 193 -140 b 146 -218 193 -193 174 -218 z "},"̦":{"ha":254,"x_min":0,"x_max":0,"o":"m 125 46 b 61 18 100 46 79 37 b 34 -51 43 -1 34 -24 b 61 -119 34 -77 43 -100 b 125 -148 79 -138 100 -148 b 137 -147 130 -148 134 -148 b 73 -227 119 -182 98 -209 b 64 -245 67 -232 64 -238 b 100 -284 64 -263 83 -284 b 112 -280 104 -284 108 -283 b 188 -190 142 -258 168 -227 b 220 -73 208 -153 219 -113 b 125 46 220 -16 192 46 z "},"̧":{"ha":262,"x_min":0,"x_max":0,"o":"m 62 -422 b 187 -357 117 -410 159 -389 b 229 -260 215 -325 229 -292 b 127 -170 229 -212 195 -170 l 119 -171 l 130 -105 b 87 -84 130 -92 107 -84 b 64 -96 73 -84 65 -88 l 45 -206 b 85 -243 47 -225 67 -243 l 92 -242 b 129 -236 106 -238 119 -236 b 163 -262 152 -237 163 -246 b 133 -316 163 -279 153 -296 b 50 -357 113 -336 85 -349 b 34 -385 39 -359 34 -369 b 58 -422 34 -403 43 -422 z "},"̱":{"ha":378,"x_min":0,"x_max":0,"o":"m 323 -186 b 345 -153 337 -186 345 -171 b 323 -120 345 -136 337 -120 l 55 -120 b 34 -154 41 -120 34 -136 b 55 -186 34 -170 41 -186 z "},"–":{"ha":706,"x_min":0,"x_max":0,"o":"m 635 294 b 652 325 646 294 652 309 b 635 356 652 341 646 356 l 71 356 b 54 326 60 356 54 341 b 71 294 54 310 60 294 z "},"—":{"ha":1302,"x_min":0,"x_max":0,"o":"m 1216 294 b 1248 325 1237 294 1248 309 b 1216 356 1248 341 1238 356 l 86 356 b 54 326 65 356 54 341 b 86 294 54 310 64 294 z "},"‘":{"ha":254,"x_min":0,"x_max":0,"o":"m 128 642 b 193 671 153 642 175 652 b 220 739 211 690 220 713 b 193 808 220 766 211 789 b 128 836 175 827 153 836 b 117 836 124 836 120 836 b 180 916 135 871 156 897 b 189 933 186 920 189 926 b 154 972 189 951 171 972 b 142 968 150 972 146 971 b 66 878 111 946 86 916 b 34 761 45 841 35 802 b 128 642 34 704 62 642 z "},"’":{"ha":254,"x_min":0,"x_max":0,"o":"m 100 642 b 112 646 104 642 109 644 b 189 737 142 669 168 700 b 220 854 208 774 219 814 b 125 972 220 911 193 972 b 61 945 100 972 79 963 b 34 876 43 926 34 903 b 61 808 34 849 43 826 b 125 779 79 789 100 779 l 138 780 b 73 700 119 745 98 718 b 64 682 67 695 64 689 b 100 642 64 664 83 642 z "},"‚":{"ha":254,"x_min":0,"x_max":0,"o":"m 100 -137 b 112 -133 104 -137 109 -136 b 189 -42 142 -110 168 -79 b 220 75 208 -5 219 35 b 125 193 220 132 193 193 b 61 165 100 193 79 184 b 34 96 43 146 34 123 b 61 28 34 70 43 47 b 125 0 79 9 100 0 l 138 1 b 73 -79 119 -35 98 -61 b 64 -97 67 -84 64 -90 b 100 -137 64 -115 83 -137 z "},"“":{"ha":459,"x_min":0,"x_max":0,"o":"m 128 642 b 193 671 153 642 175 652 b 220 739 211 690 220 713 b 193 808 220 766 211 789 b 128 836 175 827 153 836 b 117 836 124 836 120 836 b 180 916 135 871 156 897 b 189 933 186 920 189 926 b 154 972 189 951 171 972 b 142 968 150 972 146 971 b 66 878 111 946 86 916 b 34 761 45 841 35 802 b 128 642 34 704 62 642 z m 334 642 b 399 671 359 642 381 652 b 425 739 416 690 425 713 b 399 808 425 766 416 789 b 334 836 381 827 359 836 l 322 836 b 386 916 340 871 361 897 b 395 933 392 920 395 926 b 359 972 395 951 378 972 b 347 968 355 972 351 971 b 271 878 317 946 292 916 b 240 758 250 840 240 800 b 334 642 240 705 267 642 z "},"”":{"ha":459,"x_min":0,"x_max":0,"o":"m 100 642 b 112 646 104 642 109 644 b 189 737 142 669 168 700 b 220 854 208 774 219 814 b 125 972 220 911 193 972 b 61 945 100 972 79 963 b 34 876 43 926 34 903 b 61 808 34 849 43 826 b 125 779 79 789 100 779 l 138 780 b 73 700 119 745 98 718 b 64 682 67 695 64 689 b 100 642 64 664 83 642 z m 306 642 b 318 646 310 642 314 644 b 395 738 349 669 374 700 b 425 858 415 776 425 816 b 331 972 425 911 399 972 b 267 945 306 972 284 963 b 240 876 249 926 240 903 b 267 808 240 849 249 826 b 331 779 284 789 306 779 l 343 780 b 279 700 325 745 304 718 b 271 682 273 695 271 689 b 306 642 271 664 288 642 z "},"„":{"ha":459,"x_min":0,"x_max":0,"o":"m 100 -165 b 112 -161 104 -165 109 -163 b 189 -71 142 -138 168 -108 b 220 47 208 -33 219 6 b 125 165 220 104 193 165 b 61 137 100 165 79 155 b 34 68 43 118 34 95 b 61 -1 34 41 43 18 b 125 -28 79 -19 100 -28 l 138 -28 b 73 -108 119 -63 98 -90 b 64 -125 67 -113 64 -119 b 100 -165 64 -144 83 -165 z m 306 -165 b 318 -161 310 -165 314 -163 b 395 -70 349 -138 374 -108 b 425 50 415 -32 425 8 b 331 165 425 103 399 165 b 267 137 306 165 284 155 b 240 68 249 118 240 95 b 267 -1 240 41 249 18 b 331 -28 284 -19 306 -28 l 343 -28 b 279 -108 325 -63 304 -90 b 271 -125 273 -113 271 -119 b 306 -165 271 -144 288 -165 z "},"†":{"ha":607,"x_min":0,"x_max":0,"o":"m 288 -133 b 331 -122 302 -133 317 -130 b 351 -91 345 -115 351 -104 b 347 73 348 -43 347 12 b 373 673 347 226 355 425 l 552 673 b 573 706 566 673 573 689 b 552 739 573 723 566 739 l 378 739 b 395 931 386 850 391 914 b 370 962 395 945 387 955 b 319 972 354 969 337 972 b 264 944 287 972 269 963 b 251 739 260 924 256 857 l 55 739 b 34 707 41 739 34 723 b 55 673 34 690 41 673 l 248 673 b 239 186 242 502 239 340 b 247 -104 239 71 241 -26 b 288 -133 249 -123 262 -133 z "},"‡":{"ha":607,"x_min":0,"x_max":0,"o":"m 288 -133 b 331 -122 302 -133 317 -130 b 351 -91 345 -115 351 -104 b 347 57 349 -50 347 0 l 347 101 l 552 101 b 573 134 566 101 573 117 b 552 167 573 151 566 167 l 348 167 b 373 673 353 342 361 511 l 552 673 b 573 706 566 673 573 689 b 552 739 573 723 566 739 l 378 739 b 395 935 385 847 391 912 b 370 962 395 947 386 956 b 319 972 354 969 337 972 b 264 944 287 972 269 963 b 251 739 260 924 256 857 l 55 739 b 34 707 41 739 34 723 b 55 673 34 690 41 673 l 249 673 b 239 167 243 511 239 342 l 55 167 b 34 135 41 167 34 151 b 55 101 34 118 41 101 l 239 101 b 247 -104 239 20 242 -48 b 288 -133 249 -123 262 -133 z "},"•":{"ha":432,"x_min":0,"x_max":0,"o":"m 216 294 b 345 350 266 294 309 313 b 398 486 380 387 398 433 b 345 623 398 540 380 585 b 216 679 309 660 266 679 b 87 623 165 679 123 660 b 34 486 52 585 34 540 b 87 350 34 433 52 387 b 216 294 123 313 165 294 z "},"…":{"ha":1177,"x_min":0,"x_max":0,"o":"m 125 0 b 190 28 151 0 172 9 b 216 96 208 47 216 70 b 190 165 216 123 208 146 b 125 193 172 184 151 193 b 61 165 100 193 79 184 b 34 96 43 146 34 123 b 61 28 34 70 43 47 b 125 0 79 9 100 0 z m 589 0 b 653 28 614 0 635 9 b 680 96 671 47 680 70 b 653 165 680 123 671 146 b 589 193 635 184 614 193 b 524 165 564 193 542 184 b 497 96 506 146 497 123 b 524 28 497 70 506 47 b 589 0 542 9 564 0 z m 1052 0 b 1116 28 1077 0 1098 9 b 1143 96 1134 47 1143 70 b 1116 165 1143 123 1134 146 b 1052 193 1098 184 1077 193 b 987 165 1027 193 1005 184 b 960 96 969 146 960 123 b 987 28 960 70 969 47 b 1052 0 1005 9 1027 0 z "},"‹":{"ha":303,"x_min":0,"x_max":0,"o":"m 230 216 b 269 256 247 216 269 237 b 264 268 269 260 268 264 l 112 420 l 264 572 b 269 585 268 576 269 580 b 229 624 269 602 248 624 b 218 619 224 624 221 623 l 44 446 b 34 420 37 438 34 430 b 44 394 34 410 37 401 l 218 221 b 230 216 221 218 225 216 z "},"›":{"ha":303,"x_min":0,"x_max":0,"o":"m 73 216 b 86 221 78 216 82 218 l 259 394 b 269 420 266 401 269 410 b 259 446 269 430 266 438 l 86 619 b 74 624 83 623 79 624 b 34 585 56 624 34 602 b 39 572 34 580 36 576 l 191 420 l 39 268 b 34 256 36 264 34 260 b 73 216 36 237 56 216 z "},"⁄":{"ha":628,"x_min":0,"x_max":0,"o":"m 73 -133 b 98 -119 85 -133 94 -128 b 239 216 119 -62 165 50 b 466 686 313 380 389 537 b 592 925 543 834 585 913 b 594 932 593 927 594 930 b 574 959 594 941 587 949 b 536 972 561 968 548 972 b 519 964 529 972 524 970 b 395 720 512 952 471 871 b 174 241 320 568 246 409 b 35 -101 102 73 56 -41 b 34 -108 35 -103 34 -106 b 73 -133 35 -123 54 -133 z "},"∕":{"ha":628,"x_min":0,"x_max":0,"o":"m 73 -133 b 98 -119 85 -133 94 -128 b 239 216 119 -62 165 50 b 466 686 313 380 389 537 b 592 925 543 834 585 913 b 594 932 593 927 594 930 b 574 959 594 941 587 949 b 536 972 561 968 548 972 b 519 964 529 972 524 970 b 395 720 512 952 471 871 b 174 241 320 568 246 409 b 35 -101 102 73 56 -41 b 34 -108 35 -103 34 -106 b 73 -133 35 -123 54 -133 z "},"⁰":{"ha":475,"x_min":0,"x_max":0,"o":"m 238 279 b 391 391 302 279 353 317 b 441 635 425 459 441 541 b 393 868 441 726 425 804 b 246 972 357 938 308 972 b 87 861 179 972 126 935 b 34 618 52 793 34 712 b 85 385 34 526 51 449 b 238 279 122 315 173 279 z m 252 320 b 151 410 209 320 175 350 b 117 612 128 465 117 533 b 153 831 117 697 129 770 b 261 932 179 899 216 932 b 363 842 304 932 338 902 b 397 641 385 787 397 720 b 361 421 397 556 385 483 b 252 320 334 354 298 320 z "},"⁴":{"ha":498,"x_min":0,"x_max":0,"o":"m 357 279 b 397 306 375 279 397 289 b 394 407 395 335 394 368 b 395 513 394 439 395 475 l 454 513 b 464 533 460 513 464 520 b 452 554 464 547 460 554 l 397 554 b 412 812 401 648 406 734 b 424 949 418 890 422 935 b 376 972 423 963 399 972 b 342 954 356 972 345 966 b 334 817 340 941 337 896 b 326 554 330 738 328 650 l 113 554 b 288 937 230 807 288 935 b 241 972 288 955 262 972 b 223 964 234 972 228 970 b 156 825 216 951 193 905 b 36 557 119 744 79 654 b 34 547 35 553 34 550 b 59 513 34 530 45 513 l 326 513 l 326 471 b 331 298 326 402 328 345 b 357 279 332 286 340 279 z "},"₣":{"ha":800,"x_min":0,"x_max":0,"o":"m 421 52 b 429 82 427 52 429 66 b 421 113 429 98 427 113 l 351 113 l 351 191 b 352 267 351 216 351 241 l 623 267 b 644 299 637 267 644 282 b 623 332 644 316 637 332 l 354 332 b 378 620 360 441 368 536 b 399 769 389 703 395 752 l 399 773 b 375 800 399 785 391 793 b 323 810 359 807 342 810 b 267 782 296 810 273 802 b 256 669 264 768 261 730 b 245 451 252 609 248 536 b 100 701 186 530 100 600 b 447 909 100 875 311 909 b 739 871 554 908 652 895 l 742 871 b 766 914 755 871 766 893 b 754 935 766 925 762 932 b 458 972 663 960 565 972 b 182 922 351 972 259 956 b 34 709 84 880 35 808 b 73 573 36 659 49 613 b 153 460 97 532 124 494 b 235 332 197 406 224 364 l 126 332 b 105 300 113 332 105 317 b 126 267 105 283 112 267 l 242 267 b 243 113 242 210 243 159 l 161 113 b 154 83 156 113 154 99 b 161 52 154 67 156 52 l 244 52 b 250 -103 245 -14 248 -66 b 292 -133 253 -124 271 -133 b 355 -91 323 -132 354 -116 b 353 -9 354 -75 353 -47 b 351 52 352 11 352 31 z "},"₤":{"ha":697,"x_min":0,"x_max":0,"o":"m 479 219 b 498 252 492 219 498 235 b 479 286 498 269 492 286 l 353 286 b 356 312 355 294 355 303 b 354 335 356 319 355 328 l 479 335 b 498 368 492 335 498 351 b 479 401 498 385 492 401 l 329 401 b 328 405 328 402 328 404 b 262 490 309 433 287 462 b 194 579 237 518 214 548 b 163 682 174 610 163 645 b 373 905 164 830 264 905 b 497 869 416 905 457 893 b 591 758 536 844 568 808 b 610 747 595 751 602 747 b 652 777 629 747 652 760 b 651 785 652 779 652 782 b 526 926 621 848 580 896 b 356 972 473 957 416 972 b 202 939 301 972 250 961 b 39 673 107 892 42 803 b 79 522 40 614 54 564 b 160 410 104 479 131 441 l 167 401 l 83 401 b 64 369 71 401 64 385 b 83 335 64 353 71 335 l 215 335 b 224 300 221 323 224 311 b 222 286 224 296 223 291 l 83 286 b 64 253 71 286 64 269 b 83 219 64 237 71 219 l 199 219 b 186 192 195 210 191 201 b 104 47 161 142 134 94 b 37 -58 75 0 53 -35 b 34 -68 35 -61 34 -64 b 51 -111 34 -83 39 -97 b 96 -133 62 -125 77 -133 l 642 -133 b 663 -100 656 -133 663 -117 b 642 -66 663 -83 656 -66 l 181 -66 b 235 31 195 -39 213 -7 b 316 179 264 79 291 128 b 334 219 323 193 329 206 z "},"₧":{"ha":1544,"x_min":0,"x_max":0,"o":"m 330 258 b 298 260 319 258 309 258 b 326 787 306 465 315 640 b 298 820 326 802 317 813 b 267 826 288 824 277 826 b 235 821 258 826 248 825 b 210 786 221 818 213 806 b 201 467 207 696 203 590 l 175 499 b 94 677 132 548 96 602 b 128 800 94 725 105 766 b 334 907 174 868 252 907 b 500 836 400 907 456 884 b 576 604 551 782 576 705 b 544 430 576 544 566 486 b 448 297 522 374 490 330 b 330 258 414 271 375 258 z m 1173 -64 b 1150 -44 1158 -64 1150 -57 b 1236 8 1150 -18 1179 -1 b 1213 -45 1234 -16 1227 -33 b 1173 -64 1198 -58 1185 -64 z m 711 420 b 703 245 706 359 703 300 b 704 165 703 221 703 195 b 846 -77 711 4 758 -77 b 994 20 898 -77 947 -45 b 1072 155 1019 55 1045 100 b 1108 111 1083 140 1095 125 b 1144 66 1122 96 1134 80 b 1011 -43 1085 56 1011 27 b 1115 -132 1011 -103 1059 -132 b 1190 -115 1140 -132 1165 -126 b 1276 26 1247 -88 1276 -41 b 1406 76 1323 35 1367 52 b 1506 198 1445 100 1478 140 b 1510 212 1509 203 1510 208 b 1474 242 1510 231 1493 242 b 1448 227 1462 242 1453 237 b 1367 127 1426 181 1398 148 b 1263 85 1335 106 1300 92 b 1187 200 1246 129 1217 166 b 1131 298 1157 234 1131 265 b 1162 359 1131 328 1141 348 b 1194 368 1172 365 1182 368 b 1240 355 1208 368 1223 363 b 1248 353 1242 354 1245 353 b 1267 363 1254 353 1260 357 b 1280 396 1276 373 1280 384 b 1271 414 1280 404 1277 410 b 1182 436 1242 429 1213 436 b 1020 292 1105 436 1020 389 b 1031 225 1020 268 1024 245 b 963 96 1010 179 988 136 b 864 4 924 35 892 4 b 811 170 810 4 811 129 b 829 420 812 241 817 325 l 957 420 b 980 456 971 420 980 437 b 959 487 980 472 973 487 l 836 487 b 854 610 842 534 848 574 l 854 616 b 791 657 854 642 823 657 b 736 623 764 657 741 646 b 718 487 730 584 724 538 l 659 487 b 673 609 669 526 673 567 b 624 814 673 692 656 761 b 500 934 592 868 551 908 b 342 972 450 960 397 972 b 34 682 186 972 34 868 b 123 478 34 597 79 533 b 198 326 160 430 193 383 b 197 186 197 277 197 231 b 205 -104 197 74 200 -23 b 242 -133 207 -123 219 -133 b 299 -93 269 -133 299 -117 b 298 -91 299 -92 299 -92 b 294 66 296 -45 294 7 b 296 208 294 110 295 157 b 344 205 313 206 328 205 b 629 404 464 205 570 274 b 637 420 632 409 635 414 z "},"€":{"ha":780,"x_min":0,"x_max":0,"o":"m 430 326 b 441 357 437 326 441 341 b 430 389 441 374 437 389 l 262 389 b 262 426 262 401 262 413 l 262 451 l 430 451 b 441 482 437 451 441 466 b 430 513 441 498 437 513 l 265 513 b 321 758 272 606 290 688 b 497 908 363 858 422 908 b 680 680 589 908 650 832 b 705 665 682 670 690 665 b 743 690 722 665 743 674 l 743 694 b 479 972 703 880 614 972 b 328 926 422 972 372 957 b 151 622 240 863 181 754 b 134 513 143 586 137 550 l 45 513 b 34 483 37 513 34 498 b 45 451 34 467 37 451 l 130 451 b 129 419 129 441 129 430 b 130 389 129 409 129 399 l 45 389 b 34 358 37 389 34 374 b 45 326 34 342 37 326 l 134 326 b 151 218 137 290 143 254 b 217 40 165 152 188 92 b 486 -133 276 -65 364 -133 b 746 161 619 -133 706 -35 l 746 165 b 709 191 745 181 726 191 b 682 171 694 191 684 184 b 649 65 675 136 664 101 b 500 -68 614 -21 564 -66 b 368 5 447 -67 403 -43 b 288 190 332 52 306 114 b 267 326 278 234 271 279 z "},"№":{"ha":1190,"x_min":0,"x_max":0,"o":"m 608 -133 b 651 -107 627 -133 651 -124 l 651 956 b 617 972 651 967 634 972 b 585 956 595 972 585 967 l 585 43 l 190 941 b 115 972 182 960 148 972 b 60 944 83 972 64 963 b 46 715 56 922 52 846 b 34 191 38 520 34 345 b 43 -104 34 75 37 -24 b 84 -133 45 -123 58 -133 b 127 -122 98 -133 113 -130 b 147 -91 140 -115 147 -104 b 142 78 144 -41 142 15 b 153 408 142 157 146 267 b 178 803 160 548 168 680 l 585 -123 b 608 -133 589 -130 597 -133 z m 952 279 b 1105 391 1017 279 1067 317 b 1156 635 1139 459 1156 541 b 1107 868 1156 726 1139 804 b 960 972 1071 938 1022 972 b 802 861 893 972 840 935 b 748 618 766 793 748 712 b 799 385 748 526 765 449 b 952 279 836 315 887 279 z m 966 320 b 865 410 923 320 889 350 b 831 612 842 465 831 533 b 867 831 831 697 843 770 b 975 932 893 899 930 932 b 1077 842 1018 932 1052 902 b 1111 641 1099 787 1111 720 b 1075 421 1111 556 1099 483 b 966 320 1048 354 1012 320 z m 1139 182 b 1156 215 1150 182 1156 198 b 1139 248 1156 232 1150 248 l 764 248 b 748 216 753 248 748 232 b 764 182 748 199 753 182 z "},"™":{"ha":1072,"x_min":0,"x_max":0,"o":"m 263 342 b 302 368 283 342 302 352 b 300 545 300 374 300 433 b 320 851 300 636 307 738 b 330 924 325 891 328 916 b 282 950 330 942 306 950 b 248 932 262 950 250 944 b 235 739 243 910 239 846 b 145 814 208 771 176 795 b 76 891 106 840 77 862 b 114 956 77 919 89 940 b 211 987 139 970 171 981 b 333 995 250 992 291 995 b 528 972 404 995 469 987 b 543 1001 536 972 543 987 b 536 1014 543 1008 541 1012 b 342 1035 484 1028 419 1035 b 197 1023 293 1035 245 1031 b 81 982 150 1016 111 1002 b 34 897 50 962 35 933 b 127 778 37 846 77 811 b 198 718 153 760 177 741 b 232 635 219 696 230 668 b 231 601 232 617 232 606 b 237 360 233 465 235 385 b 263 342 238 348 247 342 z m 1017 342 b 1038 353 1031 342 1038 346 l 1038 1013 b 1000 1035 1038 1027 1019 1035 b 970 1022 985 1035 975 1031 l 793 631 l 659 1015 b 612 1035 654 1027 633 1035 b 577 1017 595 1035 580 1030 b 569 873 575 1004 572 956 b 562 545 564 751 562 642 b 567 360 562 472 564 410 b 593 342 568 348 576 342 b 632 368 611 342 632 351 b 629 472 630 399 629 433 b 635 669 629 519 631 585 b 650 913 639 753 644 834 l 769 572 b 801 557 772 562 787 557 b 835 570 815 557 831 562 l 997 924 l 997 353 b 1017 342 997 346 1004 342 z "},"⅓":{"ha":922,"x_min":0,"x_max":0,"o":"m 663 -133 b 786 -101 711 -132 753 -121 b 888 77 853 -60 888 10 b 753 240 888 152 844 221 b 856 409 823 283 856 347 b 690 560 856 492 799 560 b 496 414 614 560 532 514 l 495 410 b 526 390 496 399 513 390 b 538 396 532 390 536 392 b 604 486 554 436 576 467 b 686 516 631 506 659 516 b 782 428 749 516 782 477 b 606 232 782 356 721 264 b 600 218 602 231 600 227 b 614 191 600 205 604 191 b 675 199 637 197 657 199 b 774 158 719 198 752 184 b 806 64 795 132 806 100 b 768 -42 806 23 793 -12 b 655 -92 740 -75 702 -92 b 513 1 597 -92 542 -62 b 500 7 510 5 506 7 b 473 -11 488 7 473 0 b 475 -16 473 -13 474 -14 b 663 -133 512 -96 584 -133 z m 268 279 b 281 300 277 279 281 286 b 268 321 281 314 277 321 l 195 321 b 193 403 194 345 193 372 b 214 841 193 521 200 667 b 223 949 216 872 219 908 b 176 972 223 963 198 972 b 143 960 160 972 149 968 b 56 825 85 872 56 827 b 82 802 56 813 72 802 b 92 807 86 802 90 804 l 136 873 b 125 492 129 741 125 613 b 129 321 125 418 127 361 l 47 321 b 34 300 39 321 34 311 b 47 279 34 290 39 279 z m 194 -133 b 220 -119 207 -133 216 -128 b 361 216 240 -62 287 50 b 587 686 435 380 510 537 b 713 925 664 834 706 913 b 715 932 715 927 715 930 b 696 959 715 941 709 949 b 658 972 682 968 669 972 b 641 964 650 972 645 970 b 517 720 633 952 592 871 b 296 241 441 568 368 409 b 157 -101 223 73 177 -41 b 155 -108 156 -103 155 -106 b 194 -133 156 -123 175 -133 z "},"⅔":{"ha":1049,"x_min":0,"x_max":0,"o":"m 387 279 b 400 300 395 279 400 286 b 387 321 400 314 395 321 l 121 321 b 247 464 162 363 204 410 b 353 631 289 517 324 573 b 398 802 382 689 397 746 b 224 972 398 912 311 972 b 35 826 150 972 73 926 l 34 823 b 65 802 35 811 52 802 b 77 808 71 802 75 804 b 221 928 109 890 168 928 b 322 817 275 928 322 890 b 227 547 322 737 290 648 b 43 319 174 463 113 387 b 35 300 38 316 35 310 b 49 279 35 286 40 279 z m 790 -133 b 913 -101 839 -132 880 -121 b 1015 77 981 -60 1015 10 b 880 240 1015 152 972 221 b 983 409 950 283 983 347 b 818 560 983 492 926 560 b 623 414 741 560 660 514 l 623 410 b 654 390 623 399 641 390 b 666 396 660 390 664 392 b 731 486 682 436 703 467 b 813 516 759 506 786 516 b 909 428 877 516 909 477 b 734 232 909 356 848 264 b 727 218 729 231 727 227 b 742 191 727 205 732 191 b 802 199 764 197 785 199 b 901 158 846 198 880 184 b 933 64 922 132 933 100 b 895 -42 933 23 920 -12 b 783 -92 867 -75 829 -92 b 640 1 725 -92 669 -62 b 627 7 637 5 633 7 b 601 -11 616 7 601 0 b 602 -16 601 -13 602 -14 b 790 -133 640 -96 711 -133 z m 321 -133 b 347 -119 334 -133 343 -128 b 488 216 368 -62 414 50 b 715 686 562 380 637 537 b 841 925 791 834 833 913 b 843 932 842 927 843 930 b 823 959 843 941 836 949 b 785 972 810 968 797 972 b 768 964 778 972 772 970 b 644 720 761 952 720 871 b 423 241 569 568 495 409 b 284 -101 351 73 304 -41 b 283 -108 283 -103 283 -106 b 321 -133 283 -123 302 -133 z "},"−":{"ha":648,"x_min":0,"x_max":0,"o":"m 572 387 b 594 420 587 387 594 403 b 572 453 594 437 587 453 l 76 453 b 54 420 62 453 54 437 b 76 387 54 404 62 387 z "},"≈":{"ha":608,"x_min":0,"x_max":0,"o":"m 72 325 b 113 357 90 325 112 340 b 111 366 113 360 112 363 b 99 410 103 381 99 396 b 166 475 99 448 125 475 b 262 418 197 475 227 448 b 435 330 306 376 361 330 b 557 412 492 330 533 357 b 574 492 568 435 574 463 b 553 581 574 523 567 553 b 536 590 548 587 543 590 b 495 557 517 590 496 574 b 496 549 495 555 496 552 b 509 504 505 533 509 518 b 441 440 509 467 482 440 b 346 497 410 440 379 465 b 172 585 300 538 245 585 b 34 425 83 585 34 507 b 55 334 34 394 41 363 b 72 325 59 328 64 325 z m 72 60 b 113 92 90 60 112 75 b 111 100 113 95 112 98 b 99 145 103 116 99 131 b 166 210 99 183 125 210 b 262 153 197 210 227 183 b 435 64 306 111 361 64 b 557 146 492 64 533 92 b 574 227 568 170 574 197 b 553 315 574 258 567 288 b 536 325 548 321 543 325 b 495 292 517 325 496 309 b 496 284 495 290 496 287 b 509 239 505 268 509 253 b 441 175 509 201 482 175 b 346 232 410 175 379 200 b 172 320 300 273 245 320 b 34 159 83 320 34 241 b 55 69 34 129 41 98 b 72 60 59 63 64 60 z "},"≡":{"ha":648,"x_min":0,"x_max":0,"o":"m 572 424 b 594 457 587 424 594 440 b 572 490 594 474 587 490 l 76 490 b 54 458 62 490 54 474 b 76 424 54 441 62 424 z m 572 292 b 594 325 587 292 594 308 b 572 358 594 342 587 358 l 76 358 b 54 326 62 358 54 342 b 76 292 54 309 62 292 z m 572 159 b 594 193 587 159 594 176 b 572 226 594 210 587 226 l 76 226 b 54 193 62 226 54 210 b 76 159 54 176 62 159 z "},"≤":{"ha":608,"x_min":0,"x_max":0,"o":"m 543 99 b 574 142 561 99 574 125 b 564 161 574 151 570 157 l 144 354 l 564 547 b 574 566 570 551 574 557 b 543 609 574 583 561 609 b 45 381 541 609 374 533 b 34 355 37 378 34 369 b 45 327 34 340 37 331 b 543 99 374 175 541 99 z m 552 0 b 574 33 566 0 574 16 b 552 66 574 50 566 66 l 56 66 b 34 34 41 66 34 50 b 56 0 34 17 41 0 z "},"≥":{"ha":608,"x_min":0,"x_max":0,"o":"m 65 99 b 563 327 67 99 233 175 b 574 355 570 331 574 340 b 563 381 574 369 570 378 b 65 609 233 533 67 609 b 34 566 47 609 34 583 b 44 547 34 557 37 551 l 463 354 l 44 161 b 34 142 37 157 34 151 b 65 99 34 125 47 99 z m 552 0 b 574 33 566 0 574 16 b 552 66 574 50 566 66 l 56 66 b 34 34 41 66 34 50 b 56 0 34 17 41 0 z "},"":{"ha":1006,"x_min":0,"x_max":0,"o":"m 633 -202 b 972 182 853 -202 972 0 b 946 323 972 233 964 280 b 724 467 910 409 837 467 b 578 414 667 467 619 450 b 513 258 536 379 515 327 b 555 140 513 213 527 174 b 683 88 583 107 625 90 b 831 235 760 88 831 136 b 798 258 831 251 814 258 b 766 235 781 258 766 250 b 684 153 766 180 727 153 b 578 262 613 156 578 204 b 623 366 579 307 594 342 b 720 402 651 390 684 402 b 888 186 835 402 888 301 b 821 -31 887 105 865 33 b 633 -136 773 -101 711 -136 b 443 123 480 -136 443 -22 b 455 283 443 163 447 216 b 460 338 458 312 460 330 b 392 378 460 365 427 378 b 330 347 362 378 335 368 b 208 399 298 380 258 397 b 87 361 159 398 119 385 b -9 155 22 311 -9 231 b 20 46 -9 112 0 75 b 106 0 39 16 68 1 b 323 147 172 3 244 52 b 396 -94 328 47 352 -33 b 633 -202 448 -166 527 -202 z m 125 62 b 96 124 105 62 96 88 b 127 257 96 170 106 214 b 218 330 151 306 182 330 b 324 254 251 330 287 305 b 232 143 296 216 265 179 b 125 62 183 90 147 62 z "},"":{"ha":879,"x_min":0,"x_max":0,"o":"m 421 -215 b 659 -153 517 -214 596 -193 b 800 -1 722 -113 769 -62 b 845 186 830 62 845 123 b 817 326 845 236 836 283 b 594 467 779 411 705 467 b 448 414 538 467 490 450 b 383 258 407 379 385 327 b 425 140 383 213 397 174 b 553 88 453 107 496 90 b 703 235 630 88 703 136 b 668 258 703 251 684 258 b 636 235 652 258 636 250 b 554 153 636 180 597 153 b 449 262 484 156 449 204 b 494 366 450 307 465 342 b 591 402 522 390 554 402 b 760 186 702 402 760 300 b 441 -138 760 36 661 -138 b 185 -45 328 -138 243 -107 b 109 150 136 8 110 73 b 218 186 152 155 188 167 b 309 332 277 224 309 282 b 205 423 309 381 275 421 b 50 344 139 422 87 395 b -6 161 13 292 -6 231 b 421 -215 -6 -15 117 -215 z m 115 217 b 214 356 131 296 167 354 b 242 329 233 355 242 347 b 208 265 242 311 231 289 b 115 217 186 241 155 225 z "},"":{"ha":899,"x_min":0,"x_max":0,"o":"m 237 -429 b 391 -293 307 -427 358 -382 b 437 -66 415 -229 431 -153 b 503 -22 458 -52 480 -37 b 671 98 560 14 616 54 b 808 253 726 142 772 194 b 865 464 844 312 863 382 b 807 648 865 536 846 598 b 629 726 768 699 708 724 b 482 673 572 726 524 708 b 418 515 439 637 418 584 b 460 399 418 471 432 432 b 587 347 488 366 530 349 b 736 494 665 347 736 395 b 702 517 736 510 718 517 b 670 494 686 517 670 509 b 588 412 670 439 632 412 b 509 446 553 413 527 425 b 483 521 492 467 483 492 b 528 625 484 566 499 601 b 625 661 555 648 588 661 b 791 453 731 661 791 566 b 746 283 790 388 775 332 b 635 157 717 235 680 193 b 501 58 591 121 547 87 l 441 17 b 444 106 443 47 444 77 b 441 269 444 148 443 202 b 439 355 439 304 439 332 l 439 386 b 378 426 439 411 410 425 b 321 389 349 426 323 414 b 320 356 320 380 320 370 b 208 399 290 383 253 397 b 87 361 159 398 119 385 b -9 155 22 311 -9 231 b 20 46 -9 112 0 76 b 106 0 39 16 68 1 b 327 153 172 2 246 53 b 329 35 328 114 329 75 b 328 -60 329 4 328 -28 b 130 -309 220 -130 130 -197 b 157 -393 130 -341 138 -369 b 237 -429 175 -416 201 -428 z m 240 -360 b 203 -315 220 -360 203 -346 b 323 -144 203 -248 252 -195 b 304 -273 319 -192 313 -235 b 240 -360 290 -331 269 -360 z m 124 62 b 95 124 104 62 95 89 b 127 257 95 170 106 214 b 218 330 151 306 181 330 b 323 254 251 330 286 305 b 232 143 295 216 264 179 b 124 62 183 90 147 62 z "},"":{"ha":524,"x_min":0,"x_max":0,"o":"m 199 -627 b 368 -479 272 -627 328 -577 b 433 -171 401 -398 422 -295 b 487 -168 450 -169 468 -168 b 618 -195 541 -168 585 -178 b 715 -338 686 -229 715 -286 b 688 -414 715 -367 706 -393 b 614 -447 671 -435 646 -446 b 528 -343 555 -444 528 -397 b 497 -315 528 -325 518 -315 b 463 -342 480 -315 463 -323 b 503 -461 463 -389 476 -428 b 614 -513 529 -494 566 -511 b 738 -458 668 -511 709 -493 b 781 -336 767 -423 781 -382 b 489 -102 781 -224 692 -102 b 438 -105 471 -102 454 -103 b 444 110 441 -9 444 63 b 440 269 444 159 442 212 b 439 345 439 298 439 323 b 439 385 439 360 439 374 b 378 426 439 411 410 425 b 321 389 349 426 323 414 b 320 369 320 383 320 376 l 320 356 b 208 399 290 383 253 397 b 87 361 159 398 119 385 b -10 155 22 311 -10 231 b 19 46 -10 112 -1 76 b 106 0 39 16 67 1 b 327 153 172 2 246 53 b 328 62 328 138 328 108 b 323 -132 328 17 326 -48 b 274 -154 306 -138 290 -146 b 123 -300 207 -193 157 -241 b 74 -471 90 -359 74 -416 b 88 -551 74 -502 79 -528 b 199 -627 109 -602 146 -627 z m 195 -560 b 141 -471 160 -560 141 -526 b 173 -349 141 -433 152 -393 b 274 -231 194 -304 227 -265 b 319 -203 288 -220 302 -212 b 281 -448 311 -303 299 -385 b 195 -560 260 -523 231 -560 z m 124 62 b 95 124 104 62 95 89 b 127 257 95 170 106 214 b 217 330 151 306 181 330 b 323 254 250 330 286 305 b 231 143 295 216 264 179 b 124 62 182 90 146 62 z "},"":{"ha":623,"x_min":0,"x_max":0,"o":"m 130 528 b 256 885 157 766 199 885 b 310 785 292 885 310 852 b 270 657 308 745 294 702 b 157 543 245 612 208 574 b 130 528 149 537 140 532 z m 420 -78 b 534 -33 464 -77 502 -62 b 618 73 567 -3 595 32 b 677 189 642 114 661 153 b 686 212 683 200 686 208 b 650 242 686 231 668 242 b 623 227 637 242 629 237 b 549 97 602 182 577 139 b 446 4 508 35 473 4 b 414 73 420 4 414 32 b 418 146 414 94 415 119 b 422 245 421 179 422 212 b 296 418 422 330 404 418 b 111 252 208 418 146 342 b 123 454 113 304 117 372 b 269 549 181 476 229 507 b 348 665 304 585 330 623 b 376 798 367 709 376 753 b 323 929 376 858 359 901 b 251 951 304 944 280 951 b 145 914 210 951 174 939 b 6 494 67 847 21 707 l -37 492 b -196 536 -106 494 -160 509 b -264 663 -241 571 -264 613 b -242 734 -264 687 -257 711 b -164 772 -227 758 -201 770 b -78 667 -104 769 -78 724 b -47 640 -77 648 -62 640 b -12 667 -30 640 -12 648 b -52 786 -12 713 -25 753 b -164 838 -78 819 -115 836 b -261 808 -203 837 -235 827 b -330 662 -307 773 -330 724 b -326 614 -330 652 -329 637 b -288 534 -323 592 -311 565 b -38 427 -244 472 -163 427 b 2 429 -24 427 -11 428 b -1 222 0 382 -1 313 b 21 -30 -1 63 7 -21 b 45 -37 28 -35 37 -37 b 113 0 79 -37 108 -22 b 179 246 126 89 149 171 b 264 349 207 315 235 349 b 302 267 296 349 302 313 b 300 195 302 243 301 219 b 297 116 298 169 297 142 b 306 22 297 83 300 52 b 420 -78 317 -37 350 -76 z "},"":{"ha":661,"x_min":0,"x_max":0,"o":"m 473 -77 b 622 20 526 -77 575 -45 b 715 187 650 59 682 115 b 724 212 721 199 724 208 b 687 242 724 231 705 242 b 661 227 674 242 665 237 b 591 97 635 175 612 132 b 492 4 552 35 519 4 b 439 177 456 4 439 62 b 452 427 439 257 443 340 l 481 426 b 600 456 527 426 566 436 b 670 563 633 475 656 511 l 671 567 b 630 591 670 581 649 591 b 606 579 616 591 608 587 b 475 494 589 515 541 494 b 459 494 469 494 463 494 b 482 663 466 552 473 608 l 483 669 b 419 710 481 695 452 710 b 364 675 392 710 369 699 b 342 509 355 621 348 566 l 288 518 b 141 543 240 528 191 536 b 151 610 144 566 148 588 l 152 616 b 87 657 150 642 120 657 b 33 623 61 657 38 646 l 22 548 b -194 459 -68 544 -140 514 b -201 443 -199 454 -201 449 b -163 406 -201 425 -182 406 b -147 413 -157 406 -152 408 b 14 481 -103 456 -50 479 b -1 245 5 400 0 321 b 142 -77 -1 126 5 -77 b 339 98 212 -77 277 -18 b 473 -77 354 -1 393 -77 z m 161 4 b 108 170 109 4 108 129 b 132 477 109 264 116 367 b 336 441 163 473 231 461 b 329 245 332 374 329 309 l 330 227 b 260 96 308 180 285 136 b 161 4 221 35 189 4 z "}}}
